<svg width="39" height="39" viewBox="0 0 39 39" fill="none" xmlns="http://www.w3.org/2000/svg">
<mask id="mask0_42_7" style="mask-type:luminance" maskUnits="userSpaceOnUse" x="0" y="2" width="39" height="35">
<path d="M38.9912 2.77869L38.9912 36.2158L0.0205688 36.2158L0.0205688 2.77869L38.9912 2.77869Z" fill="white"/>
</mask>
<g mask="url(#mask0_42_7)">
<path d="M20.6267 33.5918C20.5815 33.2054 20.8568 32.8547 21.244 32.8087L22.9158 32.6111C23.3014 32.5659 23.6529 32.8428 23.6982 33.2308C23.7021 33.2593 23.7029 33.2855 23.7029 33.3125C23.7029 33.6656 23.4395 33.9711 23.0816 34.0123L21.4098 34.2099C21.0234 34.2551 20.6719 33.9782 20.6267 33.5918ZM17.0482 34.0076L15.4042 33.645C15.0241 33.5609 14.7837 33.184 14.8694 32.8047V32.8031C14.9519 32.423 15.3296 32.1834 15.7096 32.2683L17.3521 32.6317C17.7322 32.7158 17.9726 33.0903 17.8885 33.4728C17.8044 33.8513 17.4275 34.0917 17.0482 34.0076ZM10.9608 32.1882L9.50321 31.3471C9.1652 31.1519 9.05015 30.7211 9.24455 30.3839C9.37547 30.1577 9.61271 30.0308 9.85551 30.0308C9.97532 30.0308 10.0967 30.0625 10.207 30.1252L11.6654 30.9678C12.0018 31.1622 12.1184 31.5931 11.9225 31.9311C11.7915 32.1556 11.5551 32.2826 11.3115 32.2826C11.1917 32.2826 11.0711 32.2524 10.9608 32.1882ZM29.4674 31.82C29.5816 32.1921 29.3738 32.5857 29.0016 32.7015L27.3925 33.1974C27.0212 33.3117 26.626 33.1038 26.5118 32.7317C26.4911 32.6627 26.48 32.5928 26.48 32.5238C26.48 32.2231 26.6752 31.943 26.9775 31.8494L28.5851 31.3542C28.958 31.24 29.3523 31.4479 29.4674 31.82ZM5.95011 28.2971L4.9329 26.9569C4.69804 26.6467 4.75755 26.2039 5.06858 25.9691C5.37882 25.7342 5.82157 25.7945 6.05644 26.1047L7.07365 27.4449C7.30772 27.7551 7.24741 28.1979 6.93717 28.4327C6.62693 28.6676 6.18418 28.6073 5.95011 28.2971ZM2.86991 20.8378V18.1559C2.86991 17.5346 3.37296 17.0323 3.99424 17.0323C4.61393 17.0323 5.11698 17.5346 5.11698 18.1559V20.8378C5.11698 21.4583 4.61393 21.9613 3.99424 21.9613C3.37296 21.9613 2.86991 21.4583 2.86991 20.8378ZM5.06858 13.0254C4.75755 12.7897 4.69804 12.3478 4.9329 12.0375L5.95011 10.6958C6.18418 10.3864 6.62693 10.3253 6.93717 10.5609C7.24741 10.7966 7.30772 11.2385 7.07365 11.5488L6.05644 12.8889C5.82157 13.2 5.37882 13.2595 5.06858 13.0254ZM9.24455 8.60901C9.05015 8.27258 9.1652 7.84015 9.50321 7.64654L10.9608 6.80548C11.2972 6.61108 11.7281 6.72613 11.9225 7.06335C11.9867 7.17444 12.0169 7.29504 12.0169 7.41485C12.0169 7.65924 11.8907 7.89569 11.6654 8.02661L10.207 8.86767C9.87058 9.06287 9.43974 8.94623 9.24455 8.60901ZM14.8694 6.18896C14.7837 5.8089 15.0241 5.4328 15.4042 5.34949L17.0482 4.98608C17.4275 4.90198 17.8044 5.1416 17.8885 5.52167C17.9726 5.90173 17.7322 6.27862 17.3521 6.36194L15.7096 6.72534C15.3296 6.81024 14.9519 6.56982 14.8694 6.18896ZM21.4098 4.78454L23.0816 4.98132C23.4673 5.02655 23.7442 5.37726 23.6982 5.76367C23.6569 6.12231 23.3506 6.38574 22.9991 6.38574C22.9706 6.38574 22.9436 6.38495 22.9158 6.38177L21.244 6.1842C20.8568 6.13898 20.5815 5.78827 20.6267 5.40185C20.6719 5.01544 21.0234 4.73932 21.4098 4.78454ZM27.3925 5.7962L29.0016 6.29211C29.3738 6.40637 29.5816 6.80151 29.4674 7.17285C29.3523 7.54578 28.958 7.75445 28.5851 7.6402L26.9775 7.14349C26.6054 7.02844 26.3975 6.63409 26.5118 6.26276C26.6054 5.95965 26.8847 5.76446 27.1854 5.76446C27.2536 5.76446 27.3235 5.77478 27.3925 5.7962ZM25.6675 35.6191C28.5406 35.0303 31.2471 34.0488 33.7719 32.6341C33.9147 32.554 33.975 32.569 34.0663 32.6944C34.3598 33.103 34.4384 33.2546 34.7383 33.66C34.9772 33.9846 35.4524 34.0671 35.7992 33.8441L38.6588 32.0073C39.0087 31.7835 39.0952 31.3344 38.8548 31.0075C38.539 30.583 38.2248 30.1569 37.9106 29.7316C36.8807 28.3399 36.0745 27.2013 35.0478 25.808C34.8058 25.4787 34.3249 25.3986 33.9758 25.6279L31.1408 27.5052C30.7933 27.7337 30.7123 28.1868 30.9678 28.5042C30.9686 28.5073 30.9702 28.5089 30.9718 28.5113C31.0733 28.6359 31.0916 28.6985 30.9075 28.7787C30.1537 29.1104 23.5855 31.0369 20.0483 30.7409C18.0845 30.5743 16.1897 30.2014 14.3965 29.4254C12.2343 28.4915 10.4498 27.1354 9.15885 25.2478C8.4257 24.175 7.89964 23.019 7.62272 21.7637C7.50687 21.2329 7.40373 20.6973 7.37992 20.1617C7.36961 19.9404 7.36564 19.7182 7.36802 19.496C7.36564 19.2755 7.36961 19.0541 7.37992 18.8319C7.40373 18.2955 7.50687 17.7607 7.62272 17.2299C7.89964 15.9755 8.4257 14.8186 9.15885 13.7466C10.4498 11.8574 12.2343 10.5022 14.3965 9.5675C16.1897 8.7923 18.0845 8.41778 20.0483 8.25354C23.5855 7.95758 30.1537 9.88409 30.9075 10.2142C31.0916 10.2951 31.0733 10.3578 30.9718 10.4832C30.9702 10.4855 30.9686 10.4871 30.9678 10.4887C30.7123 10.8069 30.7933 11.2592 31.1408 11.4885L33.9758 13.3658C34.3249 13.5951 34.8058 13.515 35.0478 13.1865C36.0745 11.7932 36.8807 10.6545 37.9106 9.26282C38.2248 8.83752 38.539 8.41144 38.8548 7.98535C39.0952 7.65924 39.0087 7.21094 38.6588 6.9848L35.7992 5.14953C35.4524 4.92657 34.9772 5.0083 34.7383 5.33362C34.4384 5.73828 34.3598 5.89142 34.0663 6.29846C33.975 6.42541 33.9147 6.4397 33.7719 6.35956C31.2471 4.94403 28.5406 3.96332 25.6675 3.37457C23.4252 2.91516 21.1615 2.71283 18.87 2.79773C15.1391 2.93738 11.6225 3.79669 8.41459 5.63116C5.54466 7.27362 3.31504 9.48181 1.8043 12.3041C0.967995 13.8633 0.428444 15.5113 0.185647 17.245C0.07853 18.0043 0.0237815 18.7549 0.0206075 19.496C0.0237815 20.2379 0.07853 20.9885 0.185647 21.7487C0.428444 23.4824 0.967995 25.1296 1.8043 26.6895C3.31504 29.5126 5.54466 31.7208 8.41459 33.3617C11.6225 35.1978 15.1391 36.0563 18.87 36.1959C21.1615 36.2808 23.4252 36.0777 25.6675 35.6191Z" fill="#928474"/>
</g>
</svg>
