<svg xmlns="http://www.w3.org/2000/svg" xmlns:xlink="http://www.w3.org/1999/xlink" width="1920" zoomAndPan="magnify" viewBox="0 0 1440 809.999993" height="1080" preserveAspectRatio="xMidYMid meet" version="1.0"><path fill="#eae6e0" d="M 1440 540.371094 L 1440 824.234375 L 1296.195312 824.234375 C 1282.8125 819.773438 1269.433594 814.957031 1256.054688 810.496094 C 1092.265625 756.078125 916.882812 748.585938 744.175781 743.769531 C 534.535156 738.058594 324.71875 735.382812 114.902344 736.097656 C 96.34375 736.097656 76.71875 736.097656 60.125 727.53125 C 43.355469 718.96875 30.867188 699.34375 36.933594 681.679688 C 41.929688 667.40625 56.378906 659.378906 69.9375 652.777344 C 170.210938 604.425781 279.398438 574.628906 390.375 564.460938 C 393.585938 564.105469 396.617188 563.746094 399.832031 563.566406 C 399.472656 563.390625 398.9375 563.210938 398.582031 562.855469 C 397.867188 561.605469 397.511719 559.820312 398.402344 558.75 C 399.296875 557.679688 400.546875 557.503906 401.792969 557.324219 C 407.679688 556.433594 413.570312 557.859375 418.566406 561.070312 C 417.136719 559.820312 417.316406 557.324219 418.566406 556.074219 C 419.992188 554.824219 422.132812 554.648438 423.917969 555.539062 C 425.523438 556.253906 426.773438 558.039062 427.308594 559.820312 C 429.628906 559.109375 431.054688 556.789062 432.480469 554.824219 C 433.910156 552.863281 435.871094 550.722656 438.371094 550.902344 C 440.691406 550.902344 442.472656 553.398438 442.472656 555.71875 C 442.472656 557.859375 441.222656 559.820312 439.617188 561.25 C 500.28125 558.75 560.941406 562.140625 620.890625 571.773438 C 639.445312 574.628906 657.824219 578.375 676.378906 582.121094 C 676.019531 578.910156 676.910156 575.34375 679.410156 573.914062 C 684.582031 570.703125 689.042969 580.875 690.828125 584.265625 C 689.757812 582.480469 689.9375 579.980469 691.363281 578.554688 C 692.789062 576.949219 695.289062 576.589844 697.074219 577.839844 C 698.679688 579.089844 699.035156 581.765625 697.789062 583.191406 C 699.214844 582.300781 700.640625 581.410156 702.246094 581.050781 C 703.855469 580.695312 705.816406 580.875 706.886719 582.121094 C 708.136719 583.371094 708.3125 585.511719 706.886719 586.582031 C 713.308594 586.046875 719.734375 587.296875 725.441406 590.152344 C 726.691406 590.867188 727.9375 591.9375 727.761719 593.363281 C 798.59375 609.601562 869.246094 626.90625 941.683594 631.007812 C 988.785156 633.6875 1035.886719 630.652344 1082.453125 624.050781 C 1080.671875 622.625 1078.882812 621.195312 1077.636719 619.945312 C 1076.03125 618.34375 1074.601562 615.488281 1076.386719 614.058594 C 1077.28125 613.34375 1078.53125 613.34375 1079.601562 613.523438 C 1082.8125 614.058594 1085.84375 615.308594 1088.519531 616.914062 C 1086.734375 615.128906 1086.378906 611.5625 1088.519531 609.777344 C 1090.484375 607.992188 1093.871094 608.707031 1095.65625 610.671875 C 1093.335938 605.496094 1093.515625 599.609375 1096.011719 594.613281 C 1097.441406 591.757812 1100.652344 588.902344 1103.683594 590.332031 C 1105.46875 591.222656 1106.183594 593.183594 1106.71875 595.148438 C 1108.324219 600.855469 1108.324219 606.921875 1106.894531 612.632812 C 1109.753906 609.777344 1113.855469 608.171875 1117.957031 608.171875 C 1118.671875 610.847656 1116.886719 614.058594 1114.214844 614.773438 C 1115.816406 614.238281 1117.425781 613.703125 1119.207031 613.882812 C 1120.8125 614.058594 1122.597656 615.128906 1122.953125 616.734375 L 1122.953125 617.449219 C 1199.496094 603.175781 1274.964844 580.160156 1349.363281 556.789062 C 1355.609375 554.824219 1361.851562 552.863281 1368.097656 551.078125 C 1363.996094 551.257812 1359.710938 551.4375 1355.609375 550.902344 C 1353.46875 550.722656 1350.96875 549.828125 1350.257812 547.867188 C 1349.898438 546.261719 1350.792969 544.476562 1351.863281 543.226562 C 1356.5 537.519531 1363.460938 533.773438 1370.597656 532.703125 C 1377.910156 531.808594 1385.40625 533.59375 1391.46875 537.875 C 1390.398438 535.734375 1389.507812 533.59375 1389.328125 531.273438 C 1389.328125 528.953125 1390.042969 526.636719 1392.007812 525.207031 C 1394.859375 523.066406 1399.320312 524.316406 1401.640625 527.171875 C 1404.140625 529.847656 1405.03125 533.414062 1405.746094 536.984375 C 1406.457031 534.664062 1407.351562 532.164062 1408.957031 530.203125 C 1410.5625 528.242188 1413.238281 526.8125 1415.734375 527.707031 C 1419.125 528.777344 1420.195312 533.058594 1420.019531 536.625 C 1419.839844 538.054688 1419.484375 539.480469 1419.304688 540.910156 C 1423.410156 540.550781 1427.691406 540.015625 1431.792969 540.015625 C 1434.46875 540.015625 1437.324219 540.195312 1440 540.371094 Z M 1440 540.371094 " fill-opacity="1" fill-rule="nonzero"/><path fill="#eae6e0" d="M 1440 743.589844 L 1440 824.234375 L 0 824.234375 L 0 596.753906 C 44.605469 567.492188 101.339844 553.933594 158.433594 548.9375 C 156.292969 547.332031 154.328125 545.546875 152.546875 543.761719 C 150.226562 541.265625 148.085938 537.519531 149.867188 534.84375 C 151.832031 531.988281 156.292969 532.878906 158.96875 535.019531 C 161.644531 537.160156 163.609375 540.195312 166.640625 541.621094 C 165.929688 538.769531 165.390625 535.019531 167.890625 533.59375 C 169.851562 532.523438 172.527344 533.59375 173.597656 535.558594 C 174.847656 537.339844 175.027344 539.660156 175.203125 541.980469 C 178.773438 537.160156 184.304688 533.949219 190.191406 532.878906 C 193.222656 532.34375 196.972656 532.878906 198.042969 535.734375 C 198.933594 538.410156 196.613281 541.265625 194.652344 543.050781 C 193.046875 544.476562 191.261719 545.546875 189.65625 546.976562 C 221.949219 545.726562 253.53125 546.796875 282.433594 549.117188 C 318.652344 552.152344 354.691406 557.324219 390.375 564.460938 C 401.257812 566.421875 412.140625 568.742188 423.027344 571.238281 C 474.054688 582.835938 524.367188 597.46875 574.324219 612.988281 C 574.324219 611.027344 574.503906 609.0625 574.859375 607.28125 C 575.394531 605.316406 576.285156 603.535156 578.070312 602.640625 C 580.390625 601.75 583.066406 603.355469 584.136719 605.675781 C 585.386719 607.816406 585.207031 610.3125 585.027344 612.8125 C 585.027344 608.886719 589.84375 606.03125 593.234375 607.992188 C 596.625 610.132812 596.269531 616.023438 592.699219 617.628906 C 597.695312 615.308594 603.046875 613.34375 608.578125 612.632812 C 614.109375 612.097656 619.820312 612.632812 624.636719 615.488281 C 626.777344 616.558594 628.917969 618.699219 628.382812 621.015625 C 627.671875 623.875 623.746094 624.230469 620.710938 624.050781 C 617.140625 623.875 613.574219 624.050781 610.007812 624.230469 C 681.371094 647.066406 752.382812 670.796875 824.820312 689.886719 C 957.203125 724.679688 1093.515625 743.589844 1230.359375 745.910156 C 1229.824219 745.550781 1229.113281 745.375 1228.574219 744.839844 C 1227.148438 743.945312 1225.722656 742.519531 1226.078125 740.914062 C 1226.613281 739.128906 1228.933594 738.59375 1230.71875 738.953125 C 1234.285156 739.664062 1236.960938 742.875 1239.460938 745.730469 C 1237.140625 742.519531 1236.425781 737.882812 1238.03125 734.132812 C 1238.746094 732.171875 1240.53125 730.210938 1242.492188 730.746094 C 1243.566406 731.101562 1244.277344 731.992188 1244.8125 732.886719 C 1246.417969 735.738281 1247.488281 738.773438 1247.667969 741.984375 C 1249.273438 738.238281 1253.199219 735.5625 1257.300781 735.5625 C 1258.371094 735.5625 1259.441406 735.738281 1259.976562 736.632812 C 1260.511719 737.523438 1260.332031 738.59375 1259.800781 739.308594 C 1259.261719 740.199219 1258.550781 740.734375 1257.660156 741.269531 C 1260.691406 740.023438 1264.261719 740.023438 1267.113281 741.269531 C 1268.007812 741.628906 1268.71875 742.164062 1268.71875 743.054688 C 1268.71875 743.769531 1267.828125 744.125 1267.113281 744.480469 C 1266.042969 745.015625 1264.792969 745.375 1263.722656 745.910156 C 1296.910156 745.730469 1330.09375 745.195312 1363.28125 743.054688 C 1376.839844 742.339844 1390.578125 741.269531 1404.316406 741.269531 C 1403.425781 740.378906 1402.710938 739.488281 1402.351562 738.414062 C 1401.28125 735.5625 1402.175781 731.636719 1405.03125 730.566406 C 1406.992188 729.851562 1409.3125 730.746094 1410.738281 732.351562 C 1412.34375 733.777344 1413.234375 735.738281 1414.128906 737.703125 C 1413.59375 736.273438 1413.773438 734.3125 1414.84375 733.242188 C 1415.914062 731.992188 1418.054688 731.636719 1419.304688 732.707031 C 1420.554688 733.597656 1420.910156 735.738281 1419.660156 736.988281 C 1423.050781 735.027344 1427.15625 734.3125 1430.902344 735.027344 C 1432.507812 735.382812 1434.289062 736.097656 1434.289062 737.703125 C 1434.46875 739.128906 1433.042969 740.199219 1431.792969 740.914062 C 1431.078125 741.449219 1430.007812 741.804688 1429.296875 742.164062 C 1432.863281 742.519531 1436.433594 742.875 1440 743.589844 Z M 1440 743.589844 " fill-opacity="1" fill-rule="nonzero"/></svg>