<svg width="77" height="26" viewBox="0 0 77 26" fill="none" xmlns="http://www.w3.org/2000/svg">
<path d="M19.28 4.976L19.648 4.848C19.7867 4.848 19.8667 4.89067 19.888 4.976C20.112 6.26667 20.224 7.02933 20.224 7.264C20.224 7.488 20.1493 7.6 20 7.6C19.904 7.6 19.808 7.488 19.712 7.264C19.6267 7.02933 19.52 6.816 19.392 6.624C19.2747 6.432 19.1893 6.30933 19.136 6.256C19.0827 6.20267 18.944 6.07467 18.72 5.872C18.144 5.36 17.4827 5.104 16.736 5.104C16 5.104 15.408 5.264 14.96 5.584C14.512 5.904 14.288 6.32 14.288 6.832C14.288 7.344 14.416 7.75467 14.672 8.064C14.9387 8.37333 15.2907 8.61333 15.728 8.784C16.1653 8.95467 16.624 9.11467 17.104 9.264C18.3947 9.66933 19.3493 10.1973 19.968 10.848C20.3947 11.3067 20.608 11.8773 20.608 12.56C20.608 13.68 20.2507 14.5707 19.536 15.232C18.8213 15.8827 17.936 16.208 16.88 16.208C16.144 16.208 15.552 16.1653 15.104 16.08C14.656 16.0053 14.1973 15.8453 13.728 15.6C13.5893 15.5147 13.424 15.0987 13.232 14.352C13.04 13.6053 12.944 13.1413 12.944 12.96C12.944 12.768 13.0133 12.672 13.152 12.672C13.3013 12.672 13.392 12.7253 13.424 12.832C13.8187 13.7813 14.2827 14.4533 14.816 14.848C15.392 15.2853 16.0853 15.504 16.896 15.504C17.7173 15.504 18.368 15.296 18.848 14.88C19.3387 14.4533 19.584 13.8987 19.584 13.216C19.584 12.7147 19.4187 12.2987 19.088 11.968C18.7573 11.6267 18.3787 11.3813 17.952 11.232C16.3627 10.6987 15.2853 10.2667 14.72 9.936C13.7493 9.36 13.264 8.58667 13.264 7.616C13.264 6.64533 13.6053 5.87733 14.288 5.312C14.9813 4.736 15.8773 4.448 16.976 4.448C17.3813 4.448 17.8613 4.53867 18.416 4.72C18.9813 4.89067 19.2693 4.976 19.28 4.976ZM23.1793 10.064L22.8753 10.08C22.6939 10.08 22.6033 10.0053 22.6033 9.856C22.6033 9.74933 22.6513 9.65867 22.7473 9.584C23.1526 9.31733 23.5579 8.91733 23.9633 8.384C24.1339 8.13867 24.2673 7.96267 24.3633 7.856C24.4699 7.73867 24.5766 7.68 24.6833 7.68C24.7899 7.68 24.8433 7.80267 24.8433 8.048C24.8433 8.048 24.8219 8.352 24.7793 8.96C24.7793 9.10933 24.8059 9.2 24.8593 9.232C24.9233 9.264 25.1153 9.28 25.4353 9.28H25.9953C26.4753 9.28 26.7686 9.25333 26.8753 9.2C27.0673 9.104 27.1846 9.056 27.2273 9.056C27.3339 9.056 27.3873 9.11467 27.3873 9.232C27.3873 9.31733 27.3179 9.488 27.1793 9.744C27.0406 9.98933 26.9393 10.112 26.8753 10.112C26.3953 10.112 26.0593 10.1013 25.8673 10.08C25.6753 10.0587 25.5473 10.048 25.4833 10.048C25.4193 10.0373 25.3606 10.032 25.3073 10.032C25.2646 10.0213 25.2326 10.016 25.2113 10.016L25.1793 10C24.9766 10 24.8433 10.032 24.7793 10.096C24.7259 10.16 24.6993 10.304 24.6993 10.528L24.6353 13.504C24.6353 14.1973 24.7206 14.6827 24.8913 14.96C25.0726 15.2267 25.4459 15.36 26.0113 15.36C26.2353 15.36 26.4806 15.312 26.7473 15.216C27.0246 15.1093 27.1739 15.056 27.1953 15.056C27.3019 15.056 27.3553 15.1253 27.3553 15.264C27.3553 15.4027 27.1686 15.5893 26.7953 15.824C26.4326 16.048 26.0379 16.16 25.6113 16.16C24.1713 16.16 23.4513 15.536 23.4513 14.288V14.048L23.5153 10.32C23.5153 10.2133 23.4939 10.144 23.4513 10.112C23.4086 10.08 23.3179 10.064 23.1793 10.064ZM30.936 16.24C29.6773 16.24 29.048 15.7067 29.048 14.64C29.048 13.872 29.368 13.344 30.008 13.056C30.5413 12.832 31.3573 12.6293 32.456 12.448C32.488 12.4373 32.5307 12.432 32.584 12.432C32.6373 12.4213 32.6907 12.4107 32.744 12.4C32.808 12.3893 32.856 12.3787 32.888 12.368C32.9627 12.336 33 12.2613 33 12.144L33.032 11.312C33.032 10.704 32.856 10.2667 32.504 10C32.152 9.72267 31.8107 9.584 31.48 9.584C30.712 9.584 30.328 9.904 30.328 10.544L30.392 11.12C30.392 11.3333 30.296 11.44 30.104 11.44C29.9547 11.44 29.7893 11.4133 29.608 11.36C29.2773 11.2533 29.112 11.072 29.112 10.816C29.112 10.4 29.3893 10.0053 29.944 9.632C30.5093 9.248 31.0747 9.056 31.64 9.056C32.2053 9.056 32.648 9.10933 32.968 9.216C33.288 9.32267 33.5227 9.44533 33.672 9.584C33.832 9.712 33.9547 9.888 34.04 10.112C34.1467 10.3787 34.2 10.8 34.2 11.376C34.2 11.9413 34.184 12.448 34.152 12.896C34.1307 13.3333 34.12 13.7333 34.12 14.096C34.12 14.4587 34.1627 14.7573 34.248 14.992C34.3333 15.216 34.4347 15.36 34.552 15.424C34.6693 15.488 34.7867 15.5253 34.904 15.536C35.192 15.5573 35.336 15.6427 35.336 15.792C35.336 16.016 35 16.128 34.328 16.128C34.0507 16.128 33.8107 16.0533 33.608 15.904C33.416 15.7547 33.2773 15.6107 33.192 15.472C33.1067 15.3227 33.0587 15.248 33.048 15.248C33.0373 15.248 32.9947 15.2853 32.92 15.36C32.8453 15.424 32.7387 15.504 32.6 15.6C32.472 15.696 32.3227 15.792 32.152 15.888C31.7573 16.1227 31.352 16.24 30.936 16.24ZM32.888 12.672L32.728 12.704C32.4827 12.7467 32.328 12.7733 32.264 12.784C32.2 12.7947 32.0507 12.8267 31.816 12.88C31.5813 12.9333 31.416 12.9813 31.32 13.024C31.2347 13.0667 31.1067 13.136 30.936 13.232C30.776 13.3173 30.6587 13.408 30.584 13.504C30.392 13.8027 30.296 14.1173 30.296 14.448C30.296 14.7787 30.4027 15.056 30.616 15.28C30.8293 15.4933 31.1013 15.6 31.432 15.6C31.7733 15.6 32.04 15.5573 32.232 15.472C32.4347 15.3867 32.584 15.2907 32.68 15.184C32.776 15.0773 32.8507 14.9333 32.904 14.752C32.968 14.5493 33 14.288 33 13.968V12.816C33 12.72 32.9627 12.672 32.888 12.672ZM40.263 16L39.095 15.936C38.8177 15.936 38.4497 15.9467 37.991 15.968L37.303 16C37.143 16 37.063 15.952 37.063 15.856C37.063 15.76 37.0897 15.7013 37.143 15.68C37.1963 15.6587 37.2603 15.6427 37.335 15.632C37.4203 15.6213 37.5003 15.5893 37.575 15.536C37.7777 15.408 37.8897 15.024 37.911 14.384C37.9323 13.7333 37.943 13.3067 37.943 13.104V10.8C37.943 10.4587 37.879 10.2293 37.751 10.112C37.6337 9.99467 37.4683 9.936 37.255 9.936H37.095C36.8923 9.936 36.791 9.87733 36.791 9.76C36.791 9.65333 36.903 9.584 37.127 9.552C37.3617 9.52 37.543 9.488 37.671 9.456C37.8097 9.41333 37.9857 9.34933 38.199 9.264C38.423 9.168 38.599 9.088 38.727 9.024C38.8657 8.96 38.9563 8.928 38.999 8.928H39.031C39.127 8.928 39.175 8.992 39.175 9.12L39.143 9.808C39.143 10.0853 39.1643 10.224 39.207 10.224C39.2497 10.224 39.2923 10.1973 39.335 10.144C39.495 9.92 39.7083 9.728 39.975 9.568C40.455 9.26933 40.9137 9.12 41.351 9.12C41.7883 9.12 42.1777 9.18933 42.519 9.328C42.8603 9.456 43.127 9.62133 43.319 9.824C43.511 10.016 43.671 10.24 43.799 10.496C44.0123 10.9227 44.119 11.36 44.119 11.808V11.968L44.135 12.816V14.448C44.135 14.8533 44.1883 15.136 44.295 15.296C44.4123 15.4453 44.6843 15.552 45.111 15.616C45.3243 15.648 45.431 15.728 45.431 15.856C45.431 15.9627 45.3243 16.016 45.111 16.016L43.799 15.936L42.567 16C42.3537 16 42.247 15.9307 42.247 15.792C42.247 15.696 42.311 15.632 42.439 15.6L42.647 15.552C42.8817 15.4773 42.999 15.12 42.999 14.48V12.32C42.999 11.4987 42.7963 10.88 42.391 10.464C41.9857 10.0373 41.527 9.824 41.015 9.824C40.503 9.824 40.0763 9.94667 39.735 10.192C39.3937 10.4373 39.1857 10.6667 39.111 10.88C39.0363 11.0933 38.999 11.9093 38.999 13.328V13.936C38.999 14.4693 39.0523 14.864 39.159 15.12C39.2763 15.376 39.527 15.52 39.911 15.552C40.0177 15.552 40.151 15.5733 40.311 15.616C40.4817 15.648 40.567 15.7067 40.567 15.792C40.567 15.9307 40.4657 16 40.263 16ZM48.9321 16.064L47.7961 16.096C47.3695 16.096 47.1561 16.0267 47.1561 15.888C47.1561 15.7387 47.2361 15.6373 47.3961 15.584C47.4068 15.584 47.4281 15.5787 47.4601 15.568C47.7055 15.4827 47.8655 15.3547 47.9401 15.184C48.0148 15.0133 48.0521 14.1867 48.0521 12.704V11.296C48.0521 10.9867 48.0148 10.7413 47.9401 10.56C47.8655 10.3787 47.7961 10.2667 47.7321 10.224C47.6681 10.1813 47.5561 10.1493 47.3961 10.128C47.2468 10.096 47.1348 10.0693 47.0601 10.048C46.9961 10.016 46.9641 9.97333 46.9641 9.92C46.9641 9.856 46.9748 9.808 46.9961 9.776C47.0281 9.744 47.0815 9.712 47.1561 9.68C47.2415 9.63733 47.3268 9.6 47.4121 9.568C47.7108 9.48267 47.9561 9.39733 48.1481 9.312C48.3401 9.22667 48.4841 9.16267 48.5801 9.12C48.6868 9.07733 48.7561 9.04533 48.7881 9.024C48.8628 8.992 48.9535 8.976 49.0601 8.976C49.2201 8.976 49.3001 9.07733 49.3001 9.28L49.2041 10.048V14.432C49.2041 14.752 49.2521 15.0027 49.3481 15.184C49.4548 15.3653 49.5615 15.4773 49.6681 15.52C49.7855 15.5627 49.9188 15.5893 50.0681 15.6C50.2175 15.6107 50.3135 15.616 50.3561 15.616C50.5055 15.6373 50.5801 15.712 50.5801 15.84C50.5801 16.0213 50.4895 16.112 50.3081 16.112L50.0681 16.096L48.9321 16.064ZM48.6601 7.472C48.4468 7.472 48.2601 7.36 48.1001 7.136C47.9508 6.912 47.8761 6.73067 47.8761 6.592C47.8761 6.44267 47.9668 6.256 48.1481 6.032C48.3401 5.79733 48.5161 5.68 48.6761 5.68C48.8468 5.68 49.0121 5.792 49.1721 6.016C49.3321 6.22933 49.4121 6.42133 49.4121 6.592C49.4121 6.76267 49.3108 6.95467 49.1081 7.168C48.9055 7.37067 48.7561 7.472 48.6601 7.472ZM55.4329 16.336C54.4302 16.336 53.6249 16.032 53.0169 15.424C52.4195 14.816 52.1209 13.9947 52.1209 12.96C52.1209 11.9147 52.4622 11.0187 53.1449 10.272C53.8382 9.51467 54.7342 9.136 55.8329 9.136C56.2062 9.136 56.6062 9.18933 57.0329 9.296C57.4702 9.40267 57.6942 9.52533 57.7049 9.664C57.7262 9.92 57.7369 10.2293 57.7369 10.592C57.7369 10.944 57.6782 11.12 57.5609 11.12C57.4542 11.12 57.3582 11.0507 57.2729 10.912C57.0915 10.6027 56.7449 10.336 56.2329 10.112C55.7315 9.87733 55.2889 9.76 54.9049 9.76C54.6915 9.76 54.4835 9.84 54.2809 10C54.0782 10.16 53.9129 10.336 53.7849 10.528C53.4755 10.976 53.3209 11.6107 53.3209 12.432C53.3209 13.2533 53.5822 13.9733 54.1049 14.592C54.6382 15.2 55.2889 15.504 56.0569 15.504C56.4302 15.504 56.7769 15.4347 57.0969 15.296C57.4169 15.1573 57.6622 15.0187 57.8329 14.88C58.0142 14.7413 58.1262 14.672 58.1689 14.672C58.2862 14.672 58.3449 14.7253 58.3449 14.832C58.3449 14.9387 58.2329 15.104 58.0089 15.328C57.7849 15.5413 57.5662 15.712 57.3529 15.84C56.8302 16.1707 56.1902 16.336 55.4329 16.336ZM62.0273 16.24C60.7686 16.24 60.1393 15.7067 60.1393 14.64C60.1393 13.872 60.4593 13.344 61.0993 13.056C61.6326 12.832 62.4486 12.6293 63.5473 12.448C63.5793 12.4373 63.6219 12.432 63.6753 12.432C63.7286 12.4213 63.7819 12.4107 63.8353 12.4C63.8993 12.3893 63.9473 12.3787 63.9793 12.368C64.0539 12.336 64.0913 12.2613 64.0913 12.144L64.1233 11.312C64.1233 10.704 63.9473 10.2667 63.5953 10C63.2433 9.72267 62.9019 9.584 62.5713 9.584C61.8033 9.584 61.4193 9.904 61.4193 10.544L61.4833 11.12C61.4833 11.3333 61.3873 11.44 61.1953 11.44C61.0459 11.44 60.8806 11.4133 60.6993 11.36C60.3686 11.2533 60.2033 11.072 60.2033 10.816C60.2033 10.4 60.4806 10.0053 61.0353 9.632C61.6006 9.248 62.1659 9.056 62.7313 9.056C63.2966 9.056 63.7393 9.10933 64.0593 9.216C64.3793 9.32267 64.6139 9.44533 64.7633 9.584C64.9233 9.712 65.0459 9.888 65.1313 10.112C65.2379 10.3787 65.2913 10.8 65.2913 11.376C65.2913 11.9413 65.2753 12.448 65.2433 12.896C65.2219 13.3333 65.2113 13.7333 65.2113 14.096C65.2113 14.4587 65.2539 14.7573 65.3393 14.992C65.4246 15.216 65.5259 15.36 65.6433 15.424C65.7606 15.488 65.8779 15.5253 65.9953 15.536C66.2833 15.5573 66.4273 15.6427 66.4273 15.792C66.4273 16.016 66.0913 16.128 65.4193 16.128C65.1419 16.128 64.9019 16.0533 64.6993 15.904C64.5073 15.7547 64.3686 15.6107 64.2833 15.472C64.1979 15.3227 64.1499 15.248 64.1393 15.248C64.1286 15.248 64.0859 15.2853 64.0113 15.36C63.9366 15.424 63.8299 15.504 63.6913 15.6C63.5633 15.696 63.4139 15.792 63.2433 15.888C62.8486 16.1227 62.4433 16.24 62.0273 16.24ZM63.9793 12.672L63.8193 12.704C63.5739 12.7467 63.4193 12.7733 63.3553 12.784C63.2913 12.7947 63.1419 12.8267 62.9073 12.88C62.6726 12.9333 62.5073 12.9813 62.4113 13.024C62.3259 13.0667 62.1979 13.136 62.0273 13.232C61.8673 13.3173 61.7499 13.408 61.6753 13.504C61.4833 13.8027 61.3873 14.1173 61.3873 14.448C61.3873 14.7787 61.4939 15.056 61.7073 15.28C61.9206 15.4933 62.1926 15.6 62.5233 15.6C62.8646 15.6 63.1313 15.5573 63.3233 15.472C63.5259 15.3867 63.6753 15.2907 63.7713 15.184C63.8673 15.0773 63.9419 14.9333 63.9953 14.752C64.0593 14.5493 64.0913 14.288 64.0913 13.968V12.816C64.0913 12.72 64.0539 12.672 63.9793 12.672Z" fill="#64554F"/>
<path d="M29.368 19.828L29.356 17.788C29.356 17.572 29.288 17.36 29.152 17.152C29.016 16.936 28.792 16.828 28.48 16.828C28.32 16.828 28.24 16.776 28.24 16.672C28.24 16.544 28.332 16.48 28.516 16.48L28.96 16.468L29.68 16.504L31.66 16.468C32.412 16.468 33.06 16.66 33.604 17.044C34.148 17.42 34.42 17.964 34.42 18.676C34.42 19.068 34.348 19.42 34.204 19.732C34.06 20.036 33.884 20.276 33.676 20.452C33.476 20.628 33.248 20.776 32.992 20.896C32.584 21.08 32.22 21.172 31.9 21.172C31.58 21.172 31.288 21.144 31.024 21.088C30.76 21.024 30.628 20.96 30.628 20.896C30.628 20.776 30.68 20.716 30.784 20.716C30.824 20.716 30.904 20.732 31.024 20.764C31.152 20.796 31.292 20.812 31.444 20.812C31.596 20.812 31.776 20.788 31.984 20.74C32.192 20.684 32.408 20.6 32.632 20.488C32.856 20.368 33.04 20.192 33.184 19.96C33.328 19.72 33.4 19.444 33.4 19.132C33.4 18.596 33.184 18.1 32.752 17.644C32.32 17.18 31.724 16.948 30.964 16.948C30.716 16.948 30.548 17.024 30.46 17.176C30.372 17.32 30.328 17.652 30.328 18.172L30.304 23.128C30.304 24.056 30.576 24.552 31.12 24.616C31.256 24.632 31.368 24.64 31.456 24.64C31.68 24.624 31.792 24.704 31.792 24.88C31.792 25.016 31.7 25.084 31.516 25.084L29.8 25.024L28.684 25.072C28.436 25.072 28.312 25.028 28.312 24.94C28.312 24.804 28.356 24.72 28.444 24.688C28.484 24.672 28.512 24.66 28.528 24.652C28.544 24.644 28.58 24.636 28.636 24.628C28.7 24.612 28.74 24.6 28.756 24.592C28.78 24.584 28.808 24.58 28.84 24.58C28.872 24.572 28.892 24.568 28.9 24.568C28.916 24.56 28.936 24.548 28.96 24.532C28.992 24.508 29.016 24.48 29.032 24.448C29.048 24.408 29.068 24.36 29.092 24.304C29.124 24.24 29.16 24.148 29.2 24.028C29.248 23.9 29.288 23.312 29.32 22.264C29.352 21.216 29.368 20.404 29.368 19.828ZM37.7618 25.216C36.9458 25.216 36.2938 24.956 35.8058 24.436C35.3258 23.908 35.0858 23.28 35.0858 22.552C35.0858 21.824 35.3338 21.188 35.8298 20.644C36.3338 20.1 36.9938 19.828 37.8098 19.828C38.6338 19.828 39.3218 20.064 39.8738 20.536C40.4338 21.008 40.7138 21.664 40.7138 22.504C40.7138 23.344 40.4258 24.008 39.8498 24.496C39.2818 24.976 38.5858 25.216 37.7618 25.216ZM37.6298 20.152C37.2138 20.152 36.8418 20.316 36.5138 20.644C36.1938 20.972 36.0338 21.512 36.0338 22.264C36.0338 23.016 36.2538 23.636 36.6938 24.124C37.1338 24.612 37.6058 24.856 38.1098 24.856C38.6218 24.856 39.0338 24.684 39.3458 24.34C39.6578 23.988 39.8138 23.476 39.8138 22.804C39.8138 22.132 39.6218 21.524 39.2378 20.98C38.8538 20.428 38.3178 20.152 37.6298 20.152ZM46.2683 25.036L46.2323 24.592C46.2323 24.456 46.1963 24.388 46.1243 24.388C46.1003 24.388 46.0403 24.428 45.9443 24.508C45.8563 24.588 45.7523 24.68 45.6323 24.784C45.5123 24.88 45.3363 24.968 45.1043 25.048C44.8803 25.128 44.6363 25.168 44.3723 25.168C43.6283 25.168 43.0483 24.924 42.6323 24.436C42.2163 23.94 42.0083 23.328 42.0083 22.6C42.0083 21.864 42.2643 21.204 42.7763 20.62C43.2963 20.036 44.0123 19.744 44.9243 19.744C45.1323 19.744 45.4043 19.804 45.7403 19.924C46.0843 20.036 46.2723 20.092 46.3043 20.092C46.3363 20.092 46.3523 19.948 46.3523 19.66L46.3763 18.112C46.3763 17.68 46.3523 17.376 46.3043 17.2C46.2643 17.024 46.1963 16.908 46.1003 16.852C46.0123 16.796 45.8923 16.768 45.7403 16.768H45.6083C45.4883 16.768 45.4163 16.764 45.3923 16.756C45.3683 16.748 45.3563 16.72 45.3563 16.672V16.66C45.3563 16.604 45.3963 16.564 45.4763 16.54C45.5563 16.508 45.7163 16.456 45.9563 16.384C46.2043 16.304 46.3963 16.232 46.5323 16.168C46.6763 16.104 46.7843 16.056 46.8563 16.024C47.0083 15.944 47.1163 15.904 47.1803 15.904C47.2763 15.904 47.3243 15.984 47.3243 16.144C47.3243 16.168 47.2963 16.508 47.2403 17.164C47.1923 17.82 47.1683 18.348 47.1683 18.748L47.1443 23.128C47.1443 23.672 47.1683 24.036 47.2163 24.22C47.2723 24.404 47.3883 24.524 47.5643 24.58C47.5883 24.588 47.6563 24.604 47.7683 24.628C47.8803 24.644 47.9603 24.668 48.0083 24.7C48.0563 24.724 48.0803 24.768 48.0803 24.832C48.0803 24.928 47.7723 25 47.1563 25.048C47.0283 25.056 46.8803 25.076 46.7123 25.108C46.5443 25.148 46.4403 25.168 46.4003 25.168C46.3123 25.168 46.2683 25.124 46.2683 25.036ZM44.5403 20.092C44.0203 20.092 43.6123 20.284 43.3163 20.668C43.0203 21.044 42.8723 21.528 42.8723 22.12C42.8723 22.712 43.0563 23.264 43.4243 23.776C43.8003 24.288 44.2803 24.544 44.8643 24.544C45.2243 24.544 45.5523 24.452 45.8483 24.268C46.1443 24.084 46.2923 23.86 46.2923 23.596L46.3043 21.544C46.3043 21.056 46.1923 20.748 45.9683 20.62C45.3763 20.268 44.9003 20.092 44.5403 20.092ZM49.2827 16.852L49.0427 16.864C48.8827 16.864 48.8027 16.82 48.8027 16.732C48.8027 16.644 48.9987 16.54 49.3907 16.42C49.4467 16.404 49.5107 16.384 49.5827 16.36C49.6627 16.336 49.7107 16.324 49.7267 16.324C49.7427 16.316 49.7707 16.304 49.8107 16.288C49.8587 16.272 49.8827 16.264 49.8827 16.264C49.8907 16.256 49.9107 16.244 49.9427 16.228C49.9827 16.212 50.0107 16.2 50.0267 16.192C50.0427 16.176 50.0747 16.156 50.1227 16.132C50.1707 16.1 50.2467 16.052 50.3507 15.988C50.4627 15.916 50.5707 15.88 50.6747 15.88C50.7787 15.88 50.8307 15.956 50.8307 16.108C50.8307 16.124 50.8267 16.172 50.8187 16.252C50.8107 16.324 50.7987 16.436 50.7827 16.588C50.7747 16.732 50.7667 16.912 50.7587 17.128C50.7347 17.76 50.7227 18.432 50.7227 19.144C50.7227 19.144 50.7107 19.964 50.6867 21.604V21.856C50.6867 22.192 50.7027 22.36 50.7347 22.36C50.8067 22.36 50.8787 22.32 50.9507 22.24C51.0307 22.16 51.0867 22.108 51.1187 22.084C52.2387 21.188 52.7987 20.684 52.7987 20.572C52.7987 20.46 52.7067 20.368 52.5227 20.296C52.3467 20.224 52.2587 20.156 52.2587 20.092C52.2587 20.012 52.3067 19.972 52.4027 19.972L52.6187 19.984L54.3827 19.924C54.5907 19.924 54.6947 19.956 54.6947 20.02C54.6947 20.084 54.6707 20.128 54.6227 20.152C54.5747 20.176 54.5107 20.192 54.4307 20.2C54.1667 20.24 53.8707 20.372 53.5427 20.596C53.5187 20.612 53.4907 20.632 53.4587 20.656C53.4347 20.68 53.3827 20.72 53.3027 20.776C53.2307 20.832 53.1427 20.9 53.0387 20.98C52.9347 21.06 52.7427 21.208 52.4627 21.424C52.1827 21.632 52.0107 21.764 51.9467 21.82C51.8827 21.876 51.8507 21.936 51.8507 22C51.8507 22.064 51.8947 22.156 51.9827 22.276C52.7107 23.164 53.3347 23.836 53.8547 24.292C54.0707 24.484 54.2867 24.608 54.5027 24.664C54.7267 24.72 54.8867 24.748 54.9827 24.748C55.0787 24.748 55.1267 24.784 55.1267 24.856C55.1267 24.952 55.0907 25.008 55.0187 25.024C54.9547 25.048 54.8267 25.06 54.6347 25.06L53.3867 25.048C53.1867 25.048 52.5587 24.396 51.5027 23.092C51.2947 22.836 51.1787 22.692 51.1547 22.66C51.1387 22.628 51.0947 22.612 51.0227 22.612C50.9587 22.612 50.8827 22.668 50.7947 22.78C50.7147 22.892 50.6747 23.02 50.6747 23.164L50.6867 23.368C50.6867 23.944 50.7187 24.272 50.7827 24.352C50.7907 24.36 50.8267 24.412 50.8907 24.508C50.9627 24.596 51.1307 24.664 51.3947 24.712C51.6667 24.76 51.8027 24.82 51.8027 24.892C51.8027 25.02 51.6787 25.084 51.4307 25.084L50.2667 25.012L49.3907 25.06C49.1987 25.06 49.1027 25.012 49.1027 24.916C49.1027 24.836 49.2027 24.768 49.4027 24.712C49.5867 24.64 49.7027 24.536 49.7507 24.4C49.7987 24.264 49.8227 24 49.8227 23.608L49.8347 23.08L49.8467 17.752C49.8467 17.152 49.6587 16.852 49.2827 16.852ZM58.6231 25.216C57.8071 25.216 57.1551 24.956 56.6671 24.436C56.1871 23.908 55.9471 23.28 55.9471 22.552C55.9471 21.824 56.1951 21.188 56.6911 20.644C57.1951 20.1 57.8551 19.828 58.6711 19.828C59.4951 19.828 60.1831 20.064 60.7351 20.536C61.2951 21.008 61.5751 21.664 61.5751 22.504C61.5751 23.344 61.2871 24.008 60.7111 24.496C60.1431 24.976 59.4471 25.216 58.6231 25.216ZM58.4911 20.152C58.0751 20.152 57.7031 20.316 57.3751 20.644C57.0551 20.972 56.8951 21.512 56.8951 22.264C56.8951 23.016 57.1151 23.636 57.5551 24.124C57.9951 24.612 58.4671 24.856 58.9711 24.856C59.4831 24.856 59.8951 24.684 60.2071 24.34C60.5191 23.988 60.6751 23.476 60.6751 22.804C60.6751 22.132 60.4831 21.524 60.0991 20.98C59.7151 20.428 59.1791 20.152 58.4911 20.152ZM66.97 19.936L67.342 19.924C67.518 19.924 67.606 19.98 67.606 20.092C67.606 20.148 67.594 20.18 67.57 20.188C67.522 20.204 67.474 20.212 67.426 20.212C67.186 20.228 67.066 20.34 67.066 20.548C67.066 20.844 67.302 21.512 67.774 22.552C67.838 22.68 67.914 22.856 68.002 23.08C68.178 23.536 68.29 23.764 68.338 23.764C68.418 23.764 68.626 23.328 68.962 22.456C69.306 21.576 69.478 21.032 69.478 20.824C69.478 20.616 69.442 20.476 69.37 20.404C69.306 20.324 69.234 20.28 69.154 20.272C68.93 20.24 68.818 20.16 68.818 20.032C68.818 19.968 68.902 19.936 69.07 19.936H70.45C70.602 19.936 70.698 19.944 70.738 19.96C70.778 19.976 70.798 20.02 70.798 20.092C70.798 20.164 70.73 20.228 70.594 20.284C70.466 20.332 70.362 20.412 70.282 20.524C70.202 20.636 70.13 20.76 70.066 20.896C70.002 21.024 69.93 21.184 69.85 21.376C69.61 21.976 69.31 22.656 68.95 23.416C68.59 24.176 68.39 24.592 68.35 24.664C68.318 24.736 68.274 24.82 68.218 24.916C68.138 25.076 68.062 25.156 67.99 25.156C67.854 25.156 67.598 24.64 67.222 23.608C66.846 22.568 66.626 22.048 66.562 22.048C66.538 22.048 66.282 22.56 65.794 23.584C65.306 24.608 64.986 25.12 64.834 25.12C64.77 25.12 64.71 25.064 64.654 24.952C64.598 24.84 64.442 24.456 64.186 23.8C63.938 23.144 63.734 22.62 63.574 22.228C63.414 21.828 63.298 21.532 63.226 21.34C63.162 21.14 63.114 21 63.082 20.92C62.97 20.696 62.782 20.472 62.518 20.248C62.486 20.216 62.45 20.192 62.41 20.176C62.37 20.152 62.342 20.136 62.326 20.128C62.302 20.104 62.29 20.064 62.29 20.008C62.29 19.92 62.366 19.876 62.518 19.876L63.37 19.924L63.958 19.912C64.198 19.912 64.35 19.92 64.414 19.936C64.486 19.944 64.522 19.98 64.522 20.044C64.522 20.108 64.478 20.152 64.39 20.176C64.126 20.232 63.994 20.392 63.994 20.656C63.994 20.912 64.218 21.544 64.666 22.552C64.722 22.664 64.798 22.84 64.894 23.08C64.99 23.312 65.066 23.484 65.122 23.596C65.178 23.7 65.222 23.752 65.254 23.752C65.286 23.752 65.386 23.592 65.554 23.272C65.73 22.944 65.846 22.72 65.902 22.6C65.966 22.48 66.014 22.392 66.046 22.336C66.078 22.272 66.114 22.204 66.154 22.132C66.194 22.052 66.222 21.996 66.238 21.964C66.254 21.924 66.27 21.88 66.286 21.832C66.31 21.784 66.326 21.752 66.334 21.736C66.342 21.712 66.35 21.684 66.358 21.652C66.366 21.612 66.37 21.58 66.37 21.556V21.472C66.37 21.416 66.33 21.296 66.25 21.112C66.178 20.928 66.098 20.776 66.01 20.656C65.93 20.528 65.842 20.424 65.746 20.344C65.65 20.264 65.578 20.216 65.53 20.2C65.402 20.152 65.338 20.092 65.338 20.02C65.338 19.948 65.398 19.912 65.518 19.912L66.97 19.936ZM73.3786 25.18C72.4346 25.18 71.9626 24.78 71.9626 23.98C71.9626 23.404 72.2026 23.008 72.6826 22.792C73.0826 22.624 73.6946 22.472 74.5186 22.336C74.5426 22.328 74.5746 22.324 74.6146 22.324C74.6546 22.316 74.6946 22.308 74.7346 22.3C74.7826 22.292 74.8186 22.284 74.8426 22.276C74.8986 22.252 74.9266 22.196 74.9266 22.108L74.9506 21.484C74.9506 21.028 74.8186 20.7 74.5546 20.5C74.2906 20.292 74.0346 20.188 73.7866 20.188C73.2106 20.188 72.9226 20.428 72.9226 20.908L72.9706 21.34C72.9706 21.5 72.8986 21.58 72.7546 21.58C72.6426 21.58 72.5186 21.56 72.3826 21.52C72.1346 21.44 72.0106 21.304 72.0106 21.112C72.0106 20.8 72.2186 20.504 72.6346 20.224C73.0586 19.936 73.4826 19.792 73.9066 19.792C74.3306 19.792 74.6626 19.832 74.9026 19.912C75.1426 19.992 75.3186 20.084 75.4306 20.188C75.5506 20.284 75.6426 20.416 75.7066 20.584C75.7866 20.784 75.8266 21.1 75.8266 21.532C75.8266 21.956 75.8146 22.336 75.7906 22.672C75.7746 23 75.7666 23.3 75.7666 23.572C75.7666 23.844 75.7986 24.068 75.8626 24.244C75.9266 24.412 76.0026 24.52 76.0906 24.568C76.1786 24.616 76.2666 24.644 76.3546 24.652C76.5706 24.668 76.6786 24.732 76.6786 24.844C76.6786 25.012 76.4266 25.096 75.9226 25.096C75.7146 25.096 75.5346 25.04 75.3826 24.928C75.2386 24.816 75.1346 24.708 75.0706 24.604C75.0066 24.492 74.9706 24.436 74.9626 24.436C74.9546 24.436 74.9226 24.464 74.8666 24.52C74.8106 24.568 74.7306 24.628 74.6266 24.7C74.5306 24.772 74.4186 24.844 74.2906 24.916C73.9946 25.092 73.6906 25.18 73.3786 25.18ZM74.8426 22.504L74.7226 22.528C74.5386 22.56 74.4226 22.58 74.3746 22.588C74.3266 22.596 74.2146 22.62 74.0386 22.66C73.8626 22.7 73.7386 22.736 73.6666 22.768C73.6026 22.8 73.5066 22.852 73.3786 22.924C73.2586 22.988 73.1706 23.056 73.1146 23.128C72.9706 23.352 72.8986 23.588 72.8986 23.836C72.8986 24.084 72.9786 24.292 73.1386 24.46C73.2986 24.62 73.5026 24.7 73.7506 24.7C74.0066 24.7 74.2066 24.668 74.3506 24.604C74.5026 24.54 74.6146 24.468 74.6866 24.388C74.7586 24.308 74.8146 24.2 74.8546 24.064C74.9026 23.912 74.9266 23.716 74.9266 23.476V22.612C74.9266 22.54 74.8986 22.504 74.8426 22.504Z" fill="#64554F"/>
<mask id="mask0_31_42" style="mask-type:luminance" maskUnits="userSpaceOnUse" x="0" y="0" width="21" height="21">
<path d="M0 20.8556L0 0.183715H21V20.8556H0Z" fill="white"/>
</mask>
<g mask="url(#mask0_31_42)">
<path d="M10.5012 1.69916C10.2564 1.69916 10.0582 1.50006 10.0582 1.25568C10.0582 1.01086 10.2564 0.812194 10.5012 0.812194C10.746 0.812194 10.9447 1.01086 10.9447 1.25568C10.9447 1.50006 10.746 1.69916 10.5012 1.69916ZM7.33319 2.87793C7.33319 3.24792 7.03369 3.54785 6.6637 3.54785C6.29413 3.54785 5.9942 3.24792 5.9942 2.87793C5.9942 2.50836 6.29413 2.20843 6.6637 2.20843C7.03369 2.20843 7.33319 2.50836 7.33319 2.87793ZM4.10364 5.82336C4.10364 6.19293 3.80414 6.49286 3.43414 6.49286C3.06415 6.49286 2.76422 6.19293 2.76422 5.82336C2.76422 5.45337 3.06415 5.15387 3.43414 5.15387C3.80414 5.15387 4.10364 5.45337 4.10364 5.82336ZM2.50873 10.5004C2.50873 10.8704 2.2088 11.1699 1.83881 11.1699C1.46881 11.1699 1.16888 10.8704 1.16888 10.5004C1.16888 10.1309 1.46881 9.83093 1.83881 9.83093C2.2088 9.83093 2.50873 10.1309 2.50873 10.5004ZM4.10364 15.1775C4.10364 15.5475 3.80414 15.8474 3.43414 15.8474C3.06415 15.8474 2.76422 15.5475 2.76422 15.1775C2.76422 14.8079 3.06415 14.508 3.43414 14.508C3.80414 14.508 4.10364 14.8079 4.10364 15.1775ZM7.33319 18.1229C7.33319 18.4925 7.03369 18.7924 6.6637 18.7924C6.29413 18.7924 5.9942 18.4925 5.9942 18.1229C5.9942 17.7529 6.29413 17.453 6.6637 17.453C7.03369 17.453 7.33319 17.7529 7.33319 18.1229ZM10.9447 19.7452C10.9447 19.99 10.746 20.1887 10.5012 20.1887C10.2564 20.1887 10.0582 19.99 10.0582 19.7452C10.0582 19.5004 10.2564 19.3021 10.5012 19.3021C10.746 19.3021 10.9447 19.5004 10.9447 19.7452ZM12.4725 0.15808C5.58447 0.15808 0.0012207 4.78857 0.0012207 10.5004C0.0012207 16.2123 5.58447 20.8428 12.4725 20.8428C15.7717 20.8428 18.771 19.7802 21.0016 18.046C19.2769 18.8544 17.253 19.3201 15.0881 19.3201C8.78369 19.3201 3.67297 15.3715 3.67297 10.5004C3.67297 5.62939 8.78369 1.68079 15.0881 1.68079C17.253 1.68079 19.2769 2.14648 21.0016 2.95483C18.771 1.22021 15.7717 0.15808 12.4725 0.15808Z" fill="#64554F"/>
</g>
</svg>
