<svg xmlns="http://www.w3.org/2000/svg" xmlns:xlink="http://www.w3.org/1999/xlink" width="512" zoomAndPan="magnify" viewBox="0 0 384 383.999986" height="512" preserveAspectRatio="xMidYMid meet" version="1.0"><defs><g/></defs><path fill="#000000" d="M 284.421875 177.035156 C 282.390625 176.359375 280.359375 175.140625 278.464844 173.378906 L 276.976562 172.027344 L 279.007812 172.296875 C 279.546875 172.296875 280.089844 172.433594 280.765625 172.566406 C 278.734375 171.890625 276.703125 170.671875 275.484375 168.640625 L 274.808594 167.285156 L 276.296875 167.558594 C 279.007812 168.097656 282.664062 168.910156 283.609375 172.296875 L 284.015625 173.515625 L 283.339844 173.378906 C 284.558594 173.921875 285.507812 175.003906 285.371094 176.628906 L 285.371094 177.441406 Z M 282.257812 168.910156 L 281.984375 167.828125 C 281.714844 166.878906 281.171875 165.390625 279.820312 165.121094 C 278.464844 164.578125 277.109375 164.171875 275.757812 164.171875 C 274.945312 164.171875 274.132812 164.441406 273.320312 164.847656 L 272.234375 165.527344 L 273.453125 166.066406 C 275.757812 167.152344 278.328125 167.964844 281.171875 168.777344 Z M 122.191406 165.796875 C 122.328125 169.183594 122.328125 172.703125 122.734375 176.089844 L 123.140625 179.472656 C 125.171875 198.433594 127.335938 218.066406 132.890625 236.757812 C 133.429688 238.109375 134.242188 239.195312 135.054688 240.414062 C 135.328125 240.820312 135.597656 241.226562 135.867188 241.632812 L 137.492188 244.070312 L 137.085938 241.226562 C 136.953125 240.140625 136.816406 239.058594 136.679688 237.839844 C 136.410156 234.996094 136.140625 232.015625 135.191406 229.171875 C 133.566406 221.859375 132.210938 214.410156 130.859375 206.964844 C 130.453125 202.902344 129.910156 198.703125 129.367188 194.640625 C 128.015625 184.214844 126.523438 173.378906 126.523438 162.683594 C 126.117188 155.234375 126.796875 147.648438 127.609375 140.335938 C 127.878906 138.171875 128.015625 136.140625 128.285156 133.972656 C 128.554688 131.128906 129.097656 128.421875 129.773438 125.710938 C 130.046875 124.628906 130.316406 123.410156 130.453125 122.328125 C 131.941406 111.222656 135.191406 100.796875 140.335938 91.316406 L 142.367188 87.660156 L 139.390625 90.503906 C 137.222656 92.535156 135.867188 95.242188 134.648438 97.816406 C 134.242188 98.765625 133.703125 99.710938 133.296875 100.660156 C 130.453125 107.296875 128.691406 113.390625 127.609375 119.078125 C 127.203125 120.972656 126.796875 123.003906 126.253906 124.765625 C 125.578125 127.472656 124.898438 130.316406 124.492188 133.160156 C 124.222656 135.054688 124.085938 136.953125 123.816406 138.847656 C 122.867188 146.160156 122.054688 153.746094 122.328125 161.191406 C 122.191406 162.683594 122.191406 164.171875 122.191406 165.796875 Z M 289.027344 187.734375 L 287.671875 187.058594 L 288.078125 188.546875 C 288.621094 190.441406 289.839844 192.066406 292.140625 193.558594 L 293.226562 194.371094 L 293.226562 193.015625 C 293.089844 189.765625 289.976562 188.277344 289.027344 187.734375 Z M 289.570312 182.859375 L 289.164062 181.640625 C 288.214844 178.933594 285.640625 176.902344 282.257812 176.628906 L 280.902344 176.496094 L 281.714844 177.714844 C 283.203125 180.015625 285.640625 181.640625 288.351562 182.453125 Z M 326.539062 293.632812 C 327.484375 292.414062 328.296875 291.195312 329.246094 289.976562 L 329.921875 290.382812 C 332.359375 291.734375 334.796875 293.089844 336.558594 295.257812 C 337.371094 296.203125 336.828125 297.828125 336.289062 299.183594 C 334.390625 302.976562 331.414062 306.089844 328.703125 309.207031 C 326.945312 311.101562 325.183594 312.996094 323.695312 315.164062 L 322.203125 317.058594 L 324.640625 315.976562 C 333.171875 312.183594 340.484375 304.195312 345.496094 293.496094 C 346.984375 290.921875 346.984375 287.132812 344.277344 285.101562 C 341.570312 283.070312 338.589844 281.308594 335.746094 279.546875 L 334.933594 279.007812 C 334.121094 278.464844 333.308594 278.195312 332.359375 278.195312 C 330.601562 278.195312 328.976562 279.140625 328.164062 280.496094 C 327.078125 282.257812 325.996094 284.015625 325.046875 285.640625 C 323.695312 287.945312 322.339844 290.382812 320.714844 292.546875 C 319.765625 294.039062 318.683594 295.527344 317.734375 296.882812 C 315.839844 299.589844 313.808594 302.296875 312.320312 305.414062 L 311.507812 307.039062 L 313.265625 306.226562 C 318.953125 303.789062 322.882812 298.640625 326.539062 293.632812 Z M 269.390625 146.972656 L 269.390625 146.023438 C 269.253906 143.859375 267.628906 142.503906 264.785156 142.503906 C 263.839844 142.503906 262.890625 142.640625 261.941406 142.910156 L 260.453125 143.316406 L 261.808594 144.128906 C 263.972656 145.347656 266.277344 146.160156 268.578125 146.703125 Z M 338.726562 145.890625 C 335.882812 139.390625 332.902344 132.484375 330.871094 125.578125 L 330.734375 125.171875 L 331.007812 124.898438 C 333.308594 122.191406 336.828125 120.160156 341.570312 118.804688 L 342.382812 118.671875 C 343.195312 118.535156 344.140625 118.398438 344.953125 118.398438 C 346.578125 118.398438 347.796875 118.941406 348.609375 120.023438 C 350.238281 122.191406 351.320312 124.765625 352.402344 127.203125 L 352.945312 128.554688 C 355.382812 134.785156 358.089844 142.234375 358.632812 150.085938 L 359.039062 149.953125 L 358.632812 150.359375 C 358.632812 150.359375 358.632812 150.492188 358.632812 150.492188 L 358.769531 153.066406 L 357.550781 151.171875 L 357.007812 151.710938 C 354.164062 154.421875 350.101562 156.046875 346.171875 156.046875 C 345.902344 156.046875 345.765625 156.046875 345.496094 156.046875 L 345.226562 156.046875 L 344.414062 155.234375 L 344.414062 156.859375 L 343.195312 155.234375 C 342.109375 153.746094 341.433594 152.660156 340.890625 151.441406 C 340.351562 149.546875 339.539062 147.785156 338.726562 145.890625 Z M 357.144531 150.492188 C 356.195312 148.734375 355.519531 146.835938 354.976562 145.078125 C 354.839844 144.535156 354.707031 143.992188 354.433594 143.453125 C 352.132812 137.085938 349.152344 131.398438 345.359375 126.390625 C 343.195312 127.335938 341.027344 128.148438 338.859375 128.960938 C 339.402344 132.617188 340.484375 136.273438 341.433594 139.796875 C 342.789062 144.265625 344.140625 148.734375 344.414062 153.472656 C 347.390625 152.796875 350.371094 152.117188 353.214844 151.304688 Z M 352.269531 196.941406 C 350.644531 197.484375 348.070312 198.160156 348.070312 200.597656 C 347.121094 206.964844 347.121094 213.328125 347.121094 219.558594 C 347.121094 221.859375 347.121094 224.027344 347.121094 226.328125 C 347.257812 227.003906 347.257812 227.683594 347.121094 228.359375 C 347.121094 230.253906 347.121094 232.558594 348.746094 234.046875 L 349.695312 234.996094 L 350.507812 230.796875 C 351.589844 224.566406 352.808594 218.066406 353.488281 211.566406 C 353.621094 211.160156 353.621094 210.753906 353.621094 210.347656 C 353.757812 208.722656 354.027344 207.640625 354.976562 207.234375 C 357.414062 206.421875 359.988281 206.285156 362.019531 206.964844 C 363.238281 210.347656 363.507812 214.140625 363.777344 217.660156 C 363.914062 218.472656 363.914062 219.285156 364.050781 220.097656 C 364.320312 222.535156 364.050781 224.972656 363.777344 227.410156 C 363.507812 229.578125 363.371094 231.882812 363.507812 234.046875 L 363.644531 235.808594 L 364.726562 234.453125 C 366.214844 232.695312 366.757812 230.660156 367.164062 228.765625 C 369.058594 219.421875 369.601562 211.160156 368.652344 203.441406 L 368.519531 202.765625 C 368.113281 200.597656 367.707031 198.296875 366.082031 196.671875 L 365.808594 196.535156 C 364.183594 195.996094 362.425781 195.589844 360.394531 195.589844 C 357.550781 195.589844 354.707031 196.265625 352.539062 196.808594 Z M 334.390625 87.929688 C 333.578125 86.171875 332.902344 84.410156 332.359375 82.648438 C 331.820312 81.296875 331.414062 79.941406 330.871094 78.722656 L 330.058594 76.824219 L 329.515625 78.722656 C 328.703125 81.972656 329.652344 85.085938 330.734375 88.066406 C 331.007812 88.878906 331.277344 89.554688 331.414062 90.367188 C 330.734375 92.941406 328.027344 94.160156 325.320312 95.242188 C 325.046875 95.242188 324.777344 95.378906 324.640625 95.515625 C 323.828125 95.785156 323.152344 96.054688 322.746094 95.515625 C 321.121094 94.023438 319.765625 92.265625 318.414062 90.503906 C 317.734375 89.691406 317.058594 88.742188 316.382812 87.929688 C 317.734375 86.847656 319.226562 85.898438 320.714844 84.953125 C 323.015625 83.460938 325.320312 81.972656 327.214844 79.941406 L 329.382812 77.636719 L 326.402344 78.859375 C 321.257812 80.890625 315.296875 83.191406 311.640625 87.929688 L 311.234375 88.472656 L 311.777344 88.878906 C 313.539062 90.367188 315.027344 92.265625 316.382812 94.160156 C 317.601562 95.785156 318.820312 97.410156 320.445312 98.898438 C 321.390625 99.578125 322.476562 99.984375 323.695312 99.984375 C 325.996094 99.984375 328.164062 98.765625 330.058594 97.679688 L 330.328125 97.546875 C 332.902344 95.785156 336.421875 91.859375 334.390625 87.929688 Z M 265.464844 146.429688 L 263.027344 146.160156 L 264.515625 147.515625 C 266.140625 149.003906 267.628906 150.222656 269.796875 150.628906 L 270.472656 150.765625 L 270.609375 150.085938 C 270.746094 149.273438 270.609375 148.597656 270.070312 148.054688 C 269.121094 146.703125 266.953125 146.566406 265.464844 146.429688 Z M 258.152344 131.535156 C 258.558594 131.535156 258.828125 131.535156 259.234375 131.535156 L 260.183594 131.535156 L 259.910156 130.585938 C 259.371094 128.960938 258.285156 128.015625 256.933594 128.015625 C 256.660156 128.015625 256.390625 128.015625 256.253906 128.148438 C 253.953125 128.285156 251.785156 128.015625 249.078125 127.203125 L 247.453125 126.660156 L 248.402344 128.148438 C 250.160156 131.265625 253.546875 131.535156 256.933594 131.535156 Z M 259.371094 136.546875 C 260.453125 136.546875 261.671875 136.410156 263.027344 136.273438 L 264.246094 136.140625 L 261.941406 133.429688 L 260.996094 133.429688 C 258.152344 133.296875 255.308594 133.296875 252.464844 132.753906 L 250.433594 132.484375 L 251.785156 133.972656 C 253.683594 135.597656 256.121094 136.546875 259.371094 136.546875 Z M 261.671875 141.148438 C 261.808594 141.148438 261.941406 141.148438 262.078125 141.148438 L 262.753906 141.148438 C 263.703125 141.148438 264.785156 141.148438 265.464844 140.335938 C 265.871094 139.929688 266.003906 139.390625 266.003906 138.847656 L 266.003906 138.304688 L 265.464844 138.304688 C 263.433594 138.035156 261.265625 138.035156 259.234375 137.898438 C 258.421875 137.898438 257.609375 137.898438 256.660156 137.765625 L 254.222656 137.628906 L 256.253906 138.984375 C 257.746094 140.203125 259.640625 141.148438 261.671875 141.148438 Z M 97.816406 346.851562 C 107.429688 354.027344 116.773438 357.957031 125.847656 358.496094 L 129.097656 358.632812 L 126.117188 357.144531 C 124.085938 356.058594 121.785156 355.246094 119.753906 354.300781 C 115.824219 352.675781 111.761719 351.050781 108.511719 348.339844 C 107.292969 347.257812 106.210938 346.039062 106.753906 344.683594 C 107.429688 342.789062 108.511719 340.894531 109.460938 339.132812 C 109.730469 338.589844 110.003906 338.183594 110.273438 337.644531 C 112.035156 338.183594 113.792969 338.863281 115.417969 339.675781 C 117.859375 340.621094 120.296875 341.707031 123.003906 342.246094 C 124.628906 342.652344 126.253906 342.789062 128.285156 342.789062 C 129.367188 342.789062 130.585938 342.789062 131.941406 342.652344 L 134.378906 342.519531 L 132.210938 341.433594 C 129.773438 340.214844 127.335938 339.269531 124.898438 338.320312 C 121.921875 337.101562 118.804688 335.882812 115.960938 334.257812 C 114.472656 333.445312 112.980469 332.496094 111.492188 331.550781 C 110.136719 330.601562 108.648438 329.652344 107.160156 328.839844 C 106.753906 328.570312 106.210938 328.433594 105.804688 328.433594 C 103.910156 328.433594 102.691406 330.195312 102.417969 330.738281 C 100.117188 334.121094 98.355469 337.238281 97.003906 340.214844 C 95.785156 343.464844 96.054688 345.769531 97.816406 346.851562 Z M 54.074219 124.765625 L 54.480469 125.035156 L 54.347656 125.441406 C 51.230469 134.921875 47.035156 144.398438 43.378906 152.523438 C 42.972656 153.472656 42.429688 154.152344 41.886719 154.964844 L 40.398438 156.996094 L 40.398438 155.503906 C 39.71875 156.046875 39.179688 156.316406 38.367188 156.316406 C 38.09375 156.316406 37.824219 156.316406 37.554688 156.183594 C 34.84375 155.910156 30.78125 154.828125 27.804688 151.847656 L 27.398438 151.441406 L 26.179688 153.472656 L 26.3125 150.628906 C 26.3125 150.492188 26.3125 150.492188 26.3125 150.359375 L 26.042969 150.085938 L 26.3125 150.222656 C 26.992188 141.421875 30.105469 133.023438 33.085938 125.984375 C 33.355469 125.441406 33.625 124.898438 33.898438 124.359375 C 34.84375 122.328125 35.65625 120.296875 37.554688 119.078125 L 37.824219 118.941406 C 38.636719 118.804688 39.449219 118.671875 40.261719 118.671875 C 45.816406 118.535156 50.824219 121.921875 54.074219 124.765625 Z M 27.804688 150.492188 L 30.242188 151.171875 C 33.492188 151.984375 36.875 152.929688 40.261719 153.609375 C 40.53125 149.140625 41.753906 144.804688 43.105469 140.609375 C 44.191406 136.816406 45.410156 133.023438 45.816406 128.960938 C 44.460938 128.285156 42.835938 127.742188 41.480469 127.203125 C 40.804688 126.929688 40.125 126.660156 39.585938 126.390625 C 35.117188 132.347656 31.730469 139.117188 29.5625 146.703125 C 29.023438 147.921875 28.480469 149.140625 27.804688 150.492188 Z M 44.054688 282.796875 C 41.34375 284.421875 38.09375 286.453125 38.5 290.382812 C 39.992188 295.664062 43.105469 300.945312 48.253906 307.039062 L 49.472656 308.257812 C 52.722656 311.371094 56.105469 314.621094 60.441406 316.246094 L 62.605469 317.058594 L 61.253906 315.300781 C 59.761719 313.269531 57.867188 311.238281 56.242188 309.339844 C 53.535156 306.226562 50.691406 303.109375 48.660156 299.320312 C 48.117188 297.964844 47.441406 296.339844 48.386719 295.390625 C 50.148438 293.226562 52.585938 291.871094 55.023438 290.515625 L 55.699219 290.109375 C 56.648438 291.328125 57.597656 292.546875 58.410156 293.765625 C 62.066406 298.777344 65.992188 303.921875 71.949219 306.496094 L 73.710938 307.308594 L 72.898438 305.683594 C 71.410156 302.703125 69.378906 299.859375 67.480469 297.152344 C 66.398438 295.796875 65.449219 294.308594 64.367188 292.820312 C 62.878906 290.789062 61.660156 288.621094 60.441406 286.589844 C 59.222656 284.421875 57.867188 282.121094 56.242188 279.820312 C 55.292969 279.007812 54.210938 278.464844 53.128906 278.464844 C 51.097656 278.464844 49.066406 279.820312 47.441406 280.902344 C 46.898438 281.171875 46.492188 281.578125 45.949219 281.851562 C 45.273438 281.984375 44.597656 282.390625 44.054688 282.796875 Z M 59.085938 78.992188 L 55.566406 77.640625 L 57.867188 79.941406 C 59.761719 81.972656 62.066406 83.460938 64.367188 84.953125 C 65.855469 85.898438 67.347656 86.847656 68.699219 87.929688 C 67.886719 88.742188 67.210938 89.691406 66.535156 90.640625 C 65.179688 92.398438 63.691406 94.160156 62.066406 95.648438 C 59.355469 95.648438 56.378906 94.160156 54.210938 91.859375 C 53.261719 90.773438 53.535156 89.691406 54.347656 87.929688 C 54.480469 87.523438 54.753906 86.984375 54.753906 86.710938 C 55.835938 84.140625 55.972656 81.429688 55.429688 78.722656 L 55.023438 76.417969 L 52.855469 82.109375 C 51.910156 84.546875 50.960938 86.984375 50.011719 89.554688 C 49.472656 94.296875 54.480469 97.273438 56.105469 98.085938 C 57.597656 98.898438 59.628906 99.847656 61.660156 99.847656 C 62.878906 99.847656 63.960938 99.441406 64.773438 98.765625 C 66.261719 97.273438 67.480469 95.648438 68.699219 94.160156 C 70.054688 92.265625 71.542969 90.367188 73.304688 88.878906 L 73.847656 88.472656 L 73.441406 87.929688 C 69.917969 83.328125 64.230469 81.023438 59.085938 78.992188 Z M 256.660156 343.058594 C 258.558594 343.058594 260.316406 342.925781 261.941406 342.519531 C 264.515625 341.976562 267.089844 340.894531 269.527344 339.945312 C 271.152344 339.269531 272.914062 338.457031 274.671875 337.914062 C 274.945312 338.320312 275.214844 338.863281 275.484375 339.269531 C 276.570312 341.027344 277.515625 342.925781 278.328125 344.820312 C 278.871094 346.039062 277.789062 347.257812 276.570312 348.476562 C 273.320312 351.183594 269.253906 352.808594 265.328125 354.433594 C 263.160156 355.246094 260.996094 356.195312 258.828125 357.277344 L 256.253906 358.632812 L 259.234375 358.632812 C 264.785156 358.496094 269.933594 356.601562 275.621094 354.164062 C 279.953125 351.863281 284.558594 349.558594 288.214844 346.175781 L 288.351562 345.902344 C 289.570312 342.789062 287.808594 339.808594 286.320312 337.101562 C 285.914062 336.425781 285.507812 335.746094 285.101562 334.933594 C 284.695312 334.394531 284.421875 333.851562 284.015625 333.175781 C 282.933594 331.144531 281.578125 328.976562 279.007812 328.839844 L 278.734375 328.839844 C 276.839844 329.519531 275.214844 330.601562 273.726562 331.683594 C 272.777344 332.363281 271.695312 333.175781 270.609375 333.714844 C 267.359375 335.746094 263.703125 337.101562 260.183594 338.457031 C 257.746094 339.402344 255.171875 340.488281 252.734375 341.570312 L 250.433594 342.789062 L 252.871094 343.058594 C 254.359375 343.058594 255.441406 343.058594 256.660156 343.058594 Z M 292.140625 189.089844 L 292.007812 187.734375 C 291.734375 184.753906 289.296875 182.589844 285.507812 181.777344 L 284.152344 181.503906 L 284.695312 182.722656 C 285.914062 185.296875 288.351562 186.921875 290.921875 188.410156 Z M 169.722656 370.683594 C 172.566406 370.957031 175.410156 371.363281 178.253906 371.769531 C 182.585938 372.445312 187.191406 372.988281 191.660156 372.988281 C 192.203125 372.988281 192.609375 372.988281 193.148438 372.988281 L 193.691406 372.988281 C 197.890625 372.988281 202.089844 372.445312 206.152344 371.769531 C 208.316406 371.496094 210.621094 371.089844 212.785156 370.957031 C 213.328125 370.820312 213.871094 370.820312 214.277344 370.820312 C 216.441406 370.683594 218.878906 370.414062 220.371094 368.246094 L 220.503906 367.976562 C 221.183594 365.675781 220.910156 363.238281 220.777344 360.933594 C 220.777344 360.394531 220.640625 359.851562 220.640625 359.308594 C 220.371094 356.195312 220.097656 351.589844 215.902344 350.644531 L 215.628906 350.644531 C 212.652344 350.777344 209.671875 351.050781 206.828125 351.457031 C 204.253906 351.726562 201.683594 351.996094 199.109375 352.132812 L 197.214844 352.269531 L 198.839844 353.351562 C 201.277344 355.113281 203.984375 355.652344 206.691406 356.195312 C 207.503906 356.332031 208.453125 356.601562 209.265625 356.738281 C 210.484375 358.769531 210.347656 361.613281 210.214844 364.183594 L 210.214844 364.863281 C 207.910156 366.214844 205.339844 367.300781 202.628906 367.300781 C 200.871094 367.300781 199.246094 367.300781 197.484375 367.300781 L 189.628906 367.300781 C 187.460938 367.300781 185.296875 367.300781 183.128906 367.300781 C 180.554688 367.433594 177.847656 366.621094 174.734375 364.726562 C 174.460938 362.019531 174.191406 358.769531 175.546875 356.601562 C 176.359375 356.332031 177.171875 356.195312 177.984375 356.058594 C 180.691406 355.519531 183.535156 354.839844 185.972656 353.082031 L 187.460938 351.996094 L 185.566406 351.863281 C 181.773438 351.589844 177.984375 351.183594 174.328125 350.777344 L 170.535156 350.371094 C 167.691406 349.832031 164.984375 352.269531 164.578125 355.113281 C 163.765625 359.582031 163.628906 363.371094 164.035156 367.027344 C 164.710938 370.007812 168.097656 370.550781 169.722656 370.683594 Z M 37.824219 214.003906 C 37.960938 209.402344 37.417969 204.933594 37.011719 200.734375 C 36.875 198.027344 34.304688 197.347656 32.40625 196.941406 C 32.136719 196.808594 31.867188 196.808594 31.460938 196.671875 L 31.054688 196.535156 C 29.023438 196.128906 26.71875 195.722656 24.554688 195.722656 C 22.386719 195.722656 20.492188 196.128906 18.867188 196.941406 L 18.59375 197.214844 C 16.023438 201.277344 16.023438 206.015625 16.023438 210.753906 C 16.023438 211.839844 16.023438 212.921875 16.023438 214.003906 C 16.429688 221.046875 17.105469 228.089844 19.679688 234.453125 L 20.21875 235.945312 L 20.898438 234.589844 C 21.4375 233.507812 21.574219 232.289062 21.574219 231.066406 C 20.492188 222.535156 20.898438 214.277344 23.0625 207.097656 C 24.148438 206.828125 25.367188 206.558594 26.585938 206.558594 C 28.75 206.558594 31.460938 207.097656 31.460938 210.078125 C 32.273438 218.066406 33.761719 225.785156 35.117188 233.777344 L 35.386719 235.132812 L 36.335938 234.046875 C 37.011719 233.234375 37.824219 232.289062 37.6875 231.066406 C 37.960938 227.410156 37.960938 223.621094 37.960938 219.964844 C 37.824219 218.066406 37.824219 216.035156 37.824219 214.003906 Z M 257.203125 126.660156 L 259.097656 126.796875 L 257.746094 125.441406 C 257.609375 125.304688 257.339844 125.035156 257.203125 124.765625 C 256.660156 124.085938 256.121094 123.140625 254.765625 123.140625 L 254.222656 123.140625 C 251.378906 123.140625 248.808594 122.867188 246.234375 122.460938 L 244.472656 122.054688 L 245.558594 123.546875 C 247.859375 126.523438 251.652344 126.523438 254.902344 126.523438 C 255.714844 126.523438 256.527344 126.523438 257.203125 126.660156 Z M 382.195312 217.121094 C 381.113281 244.476562 373.933594 270.746094 361.339844 293.089844 C 348.746094 315.707031 329.921875 335.613281 307.171875 350.507812 C 287.671875 363.371094 264.109375 373.394531 237.027344 380.027344 C 233.234375 380.839844 229.171875 381.246094 225.378906 381.652344 C 223.484375 381.789062 221.722656 382.058594 219.964844 382.332031 C 210.753906 383.414062 201.546875 383.957031 192.472656 383.957031 C 184.753906 383.957031 177.035156 383.550781 169.585938 382.738281 C 165.523438 382.332031 161.597656 381.789062 157.535156 381.382812 L 154.421875 380.976562 C 148.460938 380.300781 142.773438 378.675781 137.222656 376.914062 C 136.140625 376.507812 134.921875 376.238281 133.835938 375.964844 C 107.160156 368.113281 83.597656 356.058594 63.960938 340.214844 C 43.105469 323.558594 26.71875 302.164062 16.5625 278.328125 C 5.1875 252.195312 0.71875 221.996094 3.5625 190.847656 C 7.761719 145.210938 26.179688 99.171875 58.136719 53.941406 C 59.761719 51.503906 62.472656 50.148438 65.179688 50.554688 C 68.023438 50.960938 70.460938 52.449219 72.761719 53.804688 L 73.441406 54.210938 C 78.449219 57.191406 82.917969 60.035156 87.117188 63.285156 C 88.605469 64.503906 91.585938 66.941406 90.773438 70.191406 C 88.335938 76.148438 85.355469 81.972656 82.511719 87.660156 L 81.292969 90.097656 C 76.824219 99.441406 73.304688 107.160156 70.324219 114.203125 C 71.136719 113.660156 71.816406 113.117188 72.492188 112.578125 C 73.980469 111.359375 75.742188 110.410156 77.367188 109.460938 C 78.722656 108.785156 80.074219 108.109375 81.160156 107.160156 C 83.460938 105.535156 85.898438 104.046875 88.335938 102.691406 C 91.316406 101.066406 94.429688 99.304688 97.136719 97.003906 C 96.730469 96.328125 96.324219 95.785156 95.917969 95.109375 L 95.511719 94.429688 L 96.191406 94.023438 C 96.867188 93.617188 97.542969 93.347656 98.222656 92.941406 C 100.929688 91.585938 103.636719 90.234375 106.074219 88.335938 C 105.667969 87.390625 105.261719 86.304688 104.855469 85.359375 L 104.585938 84.546875 L 105.398438 84.410156 C 108.785156 83.734375 111.355469 82.378906 113.253906 80.484375 L 112.304688 77.367188 L 113.117188 77.230469 C 115.285156 76.960938 117.179688 76.285156 118.804688 75.066406 C 118.261719 73.980469 117.855469 72.761719 117.449219 71.542969 L 117.316406 70.867188 L 117.992188 70.730469 C 118.535156 70.597656 119.078125 70.597656 119.753906 70.460938 C 121.648438 70.191406 123.410156 69.917969 125.035156 69.242188 C 124.765625 68.023438 124.359375 66.804688 124.085938 65.585938 L 123.816406 64.636719 L 125.304688 64.910156 C 126.253906 65.042969 127.335938 65.179688 128.285156 65.179688 C 129.640625 65.179688 130.722656 64.910156 131.671875 64.097656 C 131.535156 62.472656 131.535156 61.117188 131.671875 59.628906 L 131.804688 58.816406 L 132.617188 59.085938 C 133.160156 59.222656 133.703125 59.355469 134.109375 59.628906 C 135.328125 60.035156 136.546875 60.441406 137.765625 60.441406 C 137.628906 58.949219 137.359375 57.324219 138.035156 55.835938 L 138.171875 55.566406 L 138.441406 55.429688 C 138.710938 55.292969 138.984375 55.292969 139.253906 55.292969 C 140.066406 55.292969 140.742188 55.972656 141.148438 56.378906 C 141.285156 56.511719 141.285156 56.511719 141.421875 56.648438 C 142.503906 56.511719 143.722656 56.511719 144.804688 56.378906 C 144.804688 55.160156 144.804688 54.074219 145.078125 52.855469 L 145.078125 52.585938 L 145.347656 52.449219 C 145.753906 52.179688 146.023438 52.042969 146.429688 52.042969 C 147.109375 52.042969 147.648438 52.449219 148.191406 52.855469 C 148.460938 52.992188 148.597656 53.128906 148.867188 53.261719 C 149.410156 53.667969 149.816406 53.804688 150.492188 53.804688 C 151.171875 53.804688 151.984375 53.667969 152.660156 53.398438 C 152.796875 53.398438 152.929688 53.261719 153.203125 53.261719 C 153.203125 52.992188 153.335938 52.855469 153.335938 52.585938 C 153.609375 51.503906 153.742188 50.554688 154.421875 49.605469 L 154.691406 49.199219 L 155.234375 49.472656 C 156.046875 49.878906 156.722656 50.554688 157.265625 51.097656 C 157.398438 51.230469 157.535156 51.367188 157.671875 51.503906 C 157.941406 51.503906 158.347656 51.503906 158.753906 51.636719 C 159.296875 51.636719 159.835938 51.773438 160.242188 51.773438 C 161.460938 51.773438 162.140625 51.503906 162.410156 50.691406 C 165.117188 43.378906 169.179688 36.742188 173.109375 30.242188 L 174.328125 28.210938 C 178.253906 21.574219 182.859375 15.886719 187.734375 11.148438 C 192.878906 5.867188 198.160156 2.347656 203.714844 0.449219 C 204.390625 0.179688 205.066406 0.0429688 205.746094 0.0429688 C 207.777344 0.0429688 209.808594 1.128906 211.027344 2.617188 C 211.972656 3.972656 212.246094 5.597656 211.839844 7.085938 C 211.027344 9.523438 210.347656 11.960938 209.535156 14.398438 C 208.183594 18.730469 206.828125 23.066406 205.203125 27.398438 C 204.253906 29.566406 204.660156 32.003906 205.066406 34.441406 L 205.066406 34.710938 L 206.152344 35.253906 C 209.265625 33.761719 213.328125 34.304688 216.847656 36.742188 L 217.121094 36.878906 L 217.121094 37.285156 C 217.121094 38.230469 216.984375 39.316406 216.578125 40.128906 L 216.578125 40.261719 C 217.121094 40.261719 217.796875 40.398438 218.339844 40.398438 C 219.152344 40.535156 219.964844 40.535156 220.910156 40.667969 C 221.996094 40.261719 222.941406 39.316406 223.753906 38.367188 C 225.378906 36.472656 227.003906 34.441406 228.496094 32.410156 C 231.609375 28.347656 234.859375 24.148438 238.515625 20.492188 C 240.816406 18.324219 244.066406 15.347656 247.996094 15.347656 L 248.265625 15.347656 C 251.378906 15.617188 252.734375 18.730469 253.546875 21.304688 C 255.171875 27.128906 253.683594 32.949219 252.191406 38.503906 C 251.921875 39.449219 251.652344 40.398438 251.515625 41.210938 C 250.703125 44.597656 249.484375 47.980469 248.265625 51.097656 C 246.777344 55.023438 245.285156 59.085938 244.472656 63.285156 C 245.015625 63.691406 245.558594 64.230469 246.097656 64.636719 C 249.078125 67.074219 252.597656 69.917969 252.871094 74.253906 L 252.871094 74.929688 C 253.003906 76.960938 253.140625 80.210938 250.566406 80.753906 C 251.109375 82.109375 251.652344 83.328125 252.191406 84.679688 C 252.597656 85.628906 252.871094 86.578125 253.140625 87.660156 C 253.546875 89.285156 253.953125 90.773438 254.765625 92.128906 C 258.421875 97.273438 261.535156 102.960938 264.652344 108.378906 C 268.441406 115.015625 272.371094 121.921875 276.976562 128.015625 C 278.058594 129.910156 279.414062 131.671875 280.765625 133.296875 C 282.527344 135.460938 284.289062 137.628906 285.371094 140.335938 C 287.265625 143.722656 289.296875 147.515625 291.601562 150.898438 C 292.007812 151.304688 292.683594 151.847656 293.226562 152.390625 C 294.984375 154.015625 296.746094 155.640625 297.964844 157.941406 C 298.777344 159.160156 299.046875 160.652344 299.320312 162.140625 C 299.453125 163.222656 299.726562 164.308594 300.132812 165.253906 C 307.171875 175.140625 315.027344 187.191406 319.496094 201.003906 C 321.796875 209.265625 319.632812 217.933594 317.601562 225.378906 C 316.109375 230.933594 311.640625 235.671875 304.734375 238.921875 C 303.789062 239.328125 302.839844 239.601562 302.027344 239.871094 C 300.539062 240.414062 299.046875 240.820312 297.828125 241.765625 C 291.328125 246.914062 282.796875 249.078125 275.621094 247.453125 C 270.746094 246.101562 267.902344 241.496094 266.277344 238.109375 C 265.464844 236.621094 265.058594 234.996094 264.515625 233.371094 C 263.972656 231.476562 263.433594 229.578125 262.347656 228.089844 C 260.996094 226.058594 259.097656 224.296875 257.339844 222.671875 C 253.277344 224.296875 248.402344 223.347656 245.015625 220.234375 C 236.753906 226.871094 227.277344 232.964844 216.035156 238.789062 C 215.765625 238.921875 215.496094 239.058594 215.222656 239.195312 C 214.546875 239.601562 213.871094 239.871094 213.328125 240.414062 C 204.660156 250.570312 192.742188 258.828125 179.203125 264.246094 C 174.734375 266.277344 169.859375 267.496094 165.253906 268.578125 C 164.035156 268.851562 162.816406 269.121094 161.597656 269.527344 C 159.703125 273.996094 157.671875 278.601562 155.773438 282.933594 C 153.203125 288.484375 150.628906 294.308594 148.328125 300.132812 C 147.515625 301.757812 147.378906 303.515625 147.242188 305.414062 C 147.109375 306.765625 146.972656 308.257812 146.566406 309.746094 C 149.003906 316.246094 149.546875 321.527344 148.328125 326.269531 C 148.054688 328.433594 146.835938 330.464844 144.671875 332.496094 C 161.460938 337.777344 177.847656 340.488281 193.421875 340.488281 C 194.097656 340.488281 194.640625 340.488281 195.316406 340.488281 C 223.214844 339.675781 250.027344 331.820312 272.777344 317.738281 C 294.039062 304.734375 310.964844 286.589844 321.664062 265.328125 C 332.902344 243.527344 337.371094 216.441406 334.664062 186.785156 C 332.089844 159.160156 324.371094 131.804688 311.507812 105.398438 C 308.796875 98.898438 305.683594 92.398438 302.570312 86.171875 C 299.996094 81.023438 297.289062 75.605469 294.984375 70.324219 C 293.902344 68.292969 294.714844 65.585938 297.421875 63.417969 C 300.265625 60.980469 303.515625 58.949219 306.765625 56.917969 C 307.578125 56.378906 308.257812 55.972656 309.070312 55.429688 C 309.746094 55.023438 310.421875 54.617188 311.101562 54.210938 C 313.671875 52.585938 316.382812 50.960938 319.496094 50.148438 C 322.339844 49.335938 325.726562 50.691406 327.351562 53.398438 C 343.734375 76.554688 356.738281 100.390625 366.082031 124.492188 C 377.726562 156.589844 383.277344 187.464844 382.195312 217.121094 Z M 75.066406 127.609375 C 74.792969 127.878906 74.523438 128.015625 74.253906 128.285156 C 72.628906 129.640625 71.136719 130.859375 70.191406 132.617188 C 69.648438 134.515625 69.648438 136.410156 69.648438 138.441406 C 69.648438 140.609375 69.648438 142.773438 68.972656 144.941406 C 67.347656 148.867188 65.316406 150.765625 62.605469 151.035156 L 61.929688 151.035156 C 61.660156 151.984375 61.386719 152.929688 60.980469 153.746094 C 59.761719 156.453125 57.730469 158.484375 55.699219 160.515625 L 55.429688 160.785156 C 55.292969 162.683594 55.160156 164.441406 55.160156 166.339844 C 55.160156 168.503906 55.023438 170.808594 54.753906 172.972656 C 54.210938 177.714844 54.347656 182.316406 55.023438 186.785156 C 55.429688 189.222656 55.566406 191.660156 55.699219 193.964844 C 55.972656 196.671875 56.105469 199.652344 56.648438 202.359375 L 56.785156 203.441406 C 58.003906 210.214844 59.085938 217.253906 62.472656 223.214844 C 63.824219 221.859375 65.179688 220.371094 65.722656 218.472656 C 68.160156 211.160156 70.191406 203.578125 72.085938 196.265625 C 73.847656 189.765625 75.605469 182.859375 77.773438 176.359375 C 78.585938 173.515625 79.398438 170.671875 80.347656 167.964844 C 81.160156 165.527344 81.835938 163.089844 82.511719 160.515625 C 83.867188 156.046875 86.167969 151.710938 88.199219 147.648438 C 88.878906 146.296875 89.691406 144.804688 90.367188 143.453125 C 92.261719 139.390625 95.105469 135.867188 97.542969 132.753906 C 98.355469 131.671875 99.441406 131.265625 100.929688 131.398438 L 101.878906 131.535156 L 100.523438 133.972656 C 98.222656 138.035156 95.917969 142.234375 94.429688 146.703125 C 92.804688 152.253906 91.585938 158.078125 90.503906 163.765625 C 89.960938 166.339844 89.417969 168.910156 88.878906 171.484375 C 88.605469 173.109375 88.335938 174.734375 88.199219 176.222656 C 88.066406 177.441406 87.929688 178.660156 87.660156 179.878906 C 85.085938 193.558594 84.949219 208.722656 87.117188 227.410156 C 87.253906 228.496094 87.386719 229.578125 87.660156 230.796875 C 88.335938 235.265625 89.011719 239.734375 90.636719 243.933594 L 94.429688 245.421875 C 98.628906 247.046875 102.960938 248.808594 107.160156 250.433594 C 109.191406 251.246094 111.355469 251.921875 113.386719 252.601562 C 115.148438 253.140625 116.910156 253.683594 118.671875 254.359375 C 117.585938 248.265625 116.910156 242.171875 116.503906 236.214844 C 116.230469 225.109375 116.503906 214.410156 116.773438 205.339844 C 117.179688 201.410156 117.722656 197.890625 119.347656 194.777344 L 120.296875 193.015625 L 120.566406 195.046875 C 120.972656 198.027344 121.378906 201.140625 121.785156 204.121094 C 122.460938 209.671875 123.140625 215.359375 124.492188 220.777344 C 125.984375 229.039062 128.015625 235.402344 130.859375 240.683594 L 131.265625 241.496094 C 132.484375 243.796875 133.703125 246.234375 136.003906 247.320312 C 140.609375 249.621094 146.296875 250.164062 151.578125 248.808594 C 152.117188 248.671875 152.523438 248.671875 152.929688 248.539062 C 154.285156 248.265625 155.503906 247.996094 156.992188 247.996094 C 157.398438 247.996094 157.804688 247.996094 158.210938 248.132812 C 159.703125 248.402344 160.785156 249.757812 160.648438 251.246094 C 160.648438 253.546875 159.972656 255.851562 159.296875 258.015625 C 159.972656 257.882812 160.648438 257.609375 161.328125 257.476562 C 161.597656 256.933594 161.867188 256.527344 162.140625 255.984375 C 163.222656 253.953125 164.441406 251.789062 165.117188 249.484375 L 166.609375 244.476562 C 169.316406 235.539062 172.296875 226.195312 174.191406 216.847656 C 175.003906 212.652344 176.359375 208.453125 177.578125 204.527344 C 178.117188 203.035156 178.660156 201.410156 179.066406 199.785156 C 178.660156 200.191406 178.390625 200.464844 177.984375 200.871094 C 175.140625 203.714844 172.296875 206.558594 168.773438 208.589844 C 163.898438 211.296875 159.835938 212.246094 156.179688 211.433594 C 152.117188 210.890625 149.140625 207.503906 147.378906 204.660156 C 144.265625 198.433594 141.691406 191.660156 139.796875 184.347656 C 136.273438 172.433594 134.785156 162.546875 135.191406 153.203125 C 135.460938 151.035156 135.460938 148.871094 135.597656 146.703125 C 135.734375 142.367188 135.867188 138.035156 137.359375 133.835938 L 138.984375 129.234375 L 138.710938 134.109375 C 138.035156 145.347656 139.117188 154.558594 142.234375 162.277344 C 144.535156 169.316406 147.242188 174.464844 150.765625 178.390625 C 153.742188 182.996094 158.078125 186.246094 162.140625 189.496094 L 163.359375 190.441406 C 166.472656 192.203125 169.992188 193.015625 173.648438 193.691406 C 167.015625 186.921875 161.867188 179.066406 158.617188 170.808594 C 152.929688 156.316406 150.492188 141.015625 151.441406 126.660156 L 151.578125 125.035156 L 151.304688 122.597656 C 150.765625 116.773438 151.304688 110.953125 151.984375 105.265625 C 152.253906 102.828125 152.523438 100.523438 152.660156 98.085938 C 151.304688 101.609375 149.410156 104.992188 147.785156 108.378906 C 147.242188 109.328125 146.703125 110.410156 146.296875 111.359375 C 145.753906 112.578125 145.210938 113.796875 144.804688 115.015625 C 143.722656 117.859375 142.640625 120.835938 140.472656 123.273438 L 139.390625 124.765625 L 139.660156 122.597656 C 140.609375 115.960938 143.585938 109.867188 146.429688 104.046875 C 147.109375 102.691406 147.648438 101.472656 148.328125 100.117188 C 150.222656 96.460938 152.390625 91.722656 151.984375 86.710938 C 151.710938 86.304688 151.441406 85.765625 151.035156 85.359375 C 150.222656 84.140625 149.273438 82.785156 149.273438 81.160156 C 149.003906 78.722656 150.492188 76.691406 151.847656 74.792969 C 151.984375 74.523438 152.117188 74.386719 152.253906 74.117188 C 151.984375 69.105469 153.066406 64.097656 154.148438 60.035156 C 153.203125 60.847656 152.253906 61.660156 151.441406 62.605469 C 150.628906 63.691406 150.222656 64.773438 149.816406 66.128906 C 149.273438 67.753906 148.597656 69.511719 147.109375 70.867188 C 146.023438 71.949219 144.671875 72.355469 143.316406 72.628906 C 143.046875 72.761719 142.773438 72.761719 142.503906 72.898438 L 141.421875 73.167969 C 140.335938 75.066406 138.578125 76.960938 135.867188 77.234375 L 135.328125 77.234375 C 134.242188 80.210938 131.804688 82.648438 128.691406 83.867188 L 128.285156 84.140625 C 128.148438 85.222656 128.148438 86.171875 127.878906 87.253906 C 126.390625 91.179688 124.492188 93.078125 121.785156 93.078125 L 120.835938 93.078125 L 120.972656 92.265625 C 121.242188 90.910156 121.921875 89.554688 122.597656 88.335938 C 123.003906 87.523438 123.410156 86.710938 123.816406 85.765625 C 123.953125 85.085938 124.085938 84.273438 124.085938 83.460938 C 124.222656 82.242188 124.359375 81.023438 124.765625 79.671875 C 123.273438 81.160156 121.785156 82.648438 121.109375 84.546875 C 120.296875 86.578125 120.296875 88.878906 120.296875 91.179688 C 120.296875 92.671875 120.296875 94.160156 120.023438 95.648438 C 119.078125 98.765625 117.042969 101.066406 114.605469 102.015625 L 113.523438 102.421875 L 113.792969 101.203125 C 114.066406 99.710938 114.605469 98.359375 115.285156 97.003906 C 115.691406 96.191406 115.960938 95.378906 116.230469 94.566406 C 116.367188 93.753906 116.367188 92.804688 116.503906 91.859375 C 116.636719 90.773438 116.636719 89.691406 116.773438 88.609375 C 115.691406 89.691406 114.742188 90.773438 114.066406 92.128906 C 112.980469 94.023438 112.980469 96.191406 112.847656 98.359375 C 112.710938 100.796875 112.574219 103.503906 111.085938 105.671875 C 110.136719 107.296875 108.648438 108.242188 107.160156 109.054688 L 105.128906 110.410156 L 105.941406 108.515625 C 106.617188 107.023438 107.292969 105.535156 108.105469 104.046875 C 109.054688 102.285156 109.054688 100.390625 109.191406 98.359375 C 109.191406 98.085938 109.191406 97.816406 109.191406 97.546875 C 109.054688 97.679688 109.054688 97.679688 108.917969 97.816406 C 106.886719 99.847656 104.722656 102.015625 104.855469 104.992188 C 104.722656 110.679688 102.554688 115.285156 98.898438 117.722656 L 98.355469 118.128906 L 97.273438 116.773438 L 97.410156 116.367188 C 97.816406 115.148438 98.492188 113.929688 99.167969 112.847656 C 99.847656 111.628906 100.523438 110.546875 100.929688 109.191406 C 101.199219 108.109375 101.335938 106.890625 101.472656 105.804688 C 101.335938 105.941406 101.199219 106.078125 100.929688 106.210938 C 99.847656 107.160156 98.761719 108.109375 97.949219 109.328125 C 97.410156 110.816406 97.136719 112.441406 97.003906 114.335938 C 96.730469 116.910156 96.460938 119.617188 94.699219 121.921875 C 93.753906 123.546875 91.992188 124.359375 90.367188 125.035156 L 88.742188 125.710938 L 89.417969 124.085938 C 91.042969 120.566406 92.804688 116.773438 93.347656 112.710938 C 93.074219 112.847656 92.804688 113.117188 92.667969 113.253906 C 91.042969 114.472656 89.417969 115.554688 88.472656 117.316406 C 87.660156 119.078125 87.386719 120.972656 87.253906 123.140625 C 87.117188 124.765625 86.847656 126.523438 86.304688 128.148438 C 85.085938 131.398438 82.242188 133.566406 80.210938 134.785156 L 78.585938 135.734375 L 79.261719 133.972656 C 79.804688 132.617188 80.480469 131.265625 81.160156 130.046875 C 81.699219 128.960938 82.242188 128.015625 82.785156 127.066406 C 83.054688 125.710938 83.324219 124.359375 83.597656 122.867188 C 83.730469 122.054688 83.867188 121.109375 84.003906 120.160156 C 83.597656 120.429688 83.191406 120.835938 82.785156 121.109375 C 81.699219 122.054688 80.617188 122.867188 79.804688 123.816406 C 78.855469 125.847656 78.722656 128.148438 78.585938 130.453125 C 78.449219 132.210938 78.316406 133.972656 77.910156 135.734375 C 77.367188 138.304688 75.605469 140.472656 72.898438 141.960938 L 71.410156 142.773438 L 71.949219 141.148438 C 72.222656 140.203125 72.628906 139.390625 73.035156 138.441406 C 73.847656 136.546875 74.523438 134.921875 74.660156 132.890625 C 74.523438 131.128906 74.660156 129.367188 75.066406 127.609375 Z M 133.023438 72.492188 C 130.859375 75.335938 129.367188 78.316406 128.554688 81.160156 C 128.421875 81.429688 128.421875 81.835938 128.421875 82.109375 C 128.960938 81.023438 129.640625 80.078125 130.316406 79.128906 C 130.722656 78.453125 131.265625 77.773438 131.671875 77.097656 C 132.078125 76.011719 132.347656 74.660156 132.753906 73.441406 C 132.753906 73.304688 132.890625 72.898438 133.023438 72.492188 Z M 136.953125 73.710938 C 137.898438 72.355469 138.710938 71.136719 139.117188 69.648438 C 139.390625 68.699219 139.660156 67.886719 139.929688 66.941406 C 138.304688 68.972656 137.085938 71.542969 136.140625 74.792969 C 136.546875 74.386719 136.679688 74.117188 136.953125 73.710938 Z M 143.453125 69.917969 C 144.535156 68.699219 145.484375 67.480469 145.890625 65.992188 C 146.160156 65.179688 146.429688 64.367188 146.703125 63.691406 C 145.078125 65.316406 143.722656 67.210938 143.179688 69.511719 C 143.046875 69.917969 142.910156 70.460938 142.773438 71.003906 C 142.910156 70.597656 143.179688 70.191406 143.453125 69.917969 Z M 207.503906 5.324219 L 207.503906 5.597656 C 207.503906 6.003906 207.503906 6.410156 207.503906 6.816406 C 207.640625 6.136719 207.640625 5.730469 207.503906 5.324219 Z M 145.078125 296.746094 C 148.734375 287.945312 152.796875 279.007812 156.722656 270.476562 C 156.046875 270.476562 155.367188 270.609375 154.691406 270.609375 C 152.929688 274.265625 151.171875 277.515625 149.273438 280.226562 C 143.585938 291.601562 139.523438 301.351562 138.578125 312.050781 C 137.492188 318.957031 137.085938 325.050781 137.359375 330.738281 L 140.609375 331.957031 C 140.878906 331.414062 141.285156 330.871094 141.554688 330.332031 C 142.234375 329.246094 142.773438 328.300781 143.316406 327.214844 C 145.210938 321.664062 144.265625 316.113281 143.179688 312.457031 C 141.828125 307.851562 142.503906 302.570312 145.078125 296.746094 Z M 59.222656 145.753906 C 57.867188 148.191406 57.191406 151.035156 56.511719 153.878906 C 58.003906 151.441406 58.816406 148.597656 59.222656 145.753906 Z M 66.261719 136.273438 C 64.773438 138.035156 63.285156 139.929688 63.148438 142.234375 C 63.011719 143.046875 63.011719 143.859375 62.878906 144.671875 C 62.742188 146.296875 62.605469 147.785156 62.335938 149.410156 C 62.605469 148.867188 63.011719 148.328125 63.285156 147.785156 C 63.554688 147.242188 63.960938 146.703125 64.230469 146.160156 C 65.855469 143.722656 65.992188 141.015625 66.128906 138.171875 C 66.261719 137.359375 66.261719 136.816406 66.261719 136.273438 Z M 205.066406 95.378906 C 205.472656 95.109375 205.746094 94.835938 206.152344 94.429688 C 206.152344 94.429688 206.015625 94.429688 206.015625 94.296875 C 205.339844 93.890625 204.796875 93.484375 204.121094 93.484375 C 203.984375 94.023438 204.253906 94.566406 205.066406 95.378906 Z M 199.921875 89.148438 C 199.921875 89.148438 199.785156 89.148438 199.921875 89.148438 L 197.484375 89.148438 C 195.183594 89.148438 192.609375 89.285156 190.304688 90.097656 C 192.203125 90.234375 194.234375 89.828125 196.265625 89.554688 C 197.484375 89.421875 198.703125 89.285156 199.921875 89.148438 Z M 219.015625 200.734375 C 219.152344 200.328125 219.285156 199.785156 219.558594 199.378906 C 216.171875 199.378906 206.691406 190.984375 205.609375 190.171875 C 202.902344 188.410156 201.683594 187.191406 199.246094 184.890625 C 197.484375 185.566406 194.234375 188.140625 192.335938 188.140625 C 188.816406 188.140625 185.703125 186.921875 183.265625 184.753906 L 182.316406 183.808594 L 185.023438 183.265625 C 186.515625 182.996094 188.003906 182.722656 189.492188 182.183594 C 190.847656 181.777344 191.796875 180.828125 192.878906 179.878906 C 193.421875 179.339844 193.960938 178.933594 194.640625 178.390625 L 195.046875 178.121094 L 195.453125 178.253906 C 198.160156 179.746094 200.464844 180.421875 202.628906 180.691406 C 202.222656 178.660156 201.683594 176.496094 200.597656 174.597656 C 195.046875 163.902344 189.492188 153.066406 183.941406 142.097656 C 181.640625 137.222656 178.117188 133.023438 174.867188 128.960938 C 173.648438 127.472656 172.566406 126.117188 171.347656 124.628906 C 170.128906 123.140625 168.640625 121.242188 166.742188 121.648438 C 164.847656 123.679688 165.253906 126.796875 165.523438 129.503906 L 165.660156 130.179688 L 166.066406 132.484375 C 168.097656 146.296875 170.265625 160.515625 175.816406 173.515625 C 177.984375 178.660156 181.503906 186.109375 187.734375 190.984375 C 191.390625 190.441406 195.316406 189.902344 198.839844 188.277344 L 199.246094 188.140625 L 199.515625 188.410156 C 206.285156 193.691406 212.246094 197.753906 219.015625 200.734375 Z M 176.085938 107.703125 C 179.742188 113.117188 183.941406 118.265625 188.003906 123.140625 C 189.898438 125.304688 191.660156 127.609375 193.421875 129.773438 C 199.921875 138.035156 207.640625 145.347656 215.089844 152.390625 C 217.660156 154.828125 220.097656 157.128906 222.671875 159.566406 C 225.515625 161.328125 228.359375 163.496094 231.066406 165.527344 C 233.910156 167.691406 236.753906 169.859375 239.734375 171.753906 C 240.410156 172.433594 241.089844 172.027344 241.902344 171.753906 C 242.035156 171.753906 242.308594 171.621094 242.441406 171.621094 L 242.714844 170.808594 C 237.160156 166.746094 231.609375 162.410156 225.515625 157.535156 C 220.910156 153.472656 216.847656 149.003906 212.785156 144.671875 C 211.433594 143.179688 209.941406 141.554688 208.589844 140.066406 C 203.171875 134.109375 197.890625 128.015625 192.609375 122.054688 C 186.378906 115.015625 179.878906 107.566406 173.515625 100.523438 C 172.703125 99.710938 172.429688 98.628906 172.160156 97.546875 C 172.023438 96.867188 171.753906 96.191406 171.484375 95.648438 C 171.078125 95.378906 170.671875 95.242188 170.128906 95.109375 C 172.023438 99.847656 173.648438 103.910156 176.085938 107.703125 Z M 187.328125 128.554688 C 187.867188 129.503906 188.410156 130.585938 188.816406 131.671875 L 190.710938 133.835938 C 195.722656 139.660156 199.785156 146.160156 203.714844 152.523438 C 206.285156 156.722656 208.996094 161.058594 211.972656 164.984375 C 212.378906 165.527344 212.785156 166.066406 213.191406 166.746094 C 216.171875 171.078125 219.421875 175.683594 224.027344 177.847656 C 222.808594 174.871094 220.910156 172.296875 219.015625 169.859375 C 218.066406 168.640625 216.984375 167.285156 216.171875 165.933594 C 214.953125 164.308594 213.734375 162.546875 212.515625 160.785156 C 210.078125 157.402344 207.640625 153.878906 204.933594 150.765625 C 203.308594 148.597656 201.546875 146.429688 199.785156 144.398438 C 197.214844 141.421875 194.640625 138.304688 192.472656 134.921875 C 191.796875 133.972656 191.117188 132.890625 190.441406 131.941406 C 189.222656 130.046875 188.003906 128.285156 186.515625 126.660156 C 186.785156 127.335938 187.054688 128.015625 187.328125 128.554688 Z M 188.003906 133.023438 C 185.566406 130.722656 183.941406 127.878906 182.453125 125.171875 C 181.640625 123.679688 180.691406 122.191406 179.742188 120.703125 C 171.210938 107.835938 165.523438 94.972656 162.816406 82.515625 C 160.515625 82.921875 158.617188 84.273438 157.128906 86.304688 L 159.296875 87.796875 L 159.296875 88.066406 C 159.835938 90.773438 161.191406 93.078125 162.546875 95.515625 C 163.359375 96.867188 164.171875 98.359375 164.847656 99.847656 C 167.015625 103.773438 169.046875 107.972656 170.941406 112.035156 C 174.328125 119.210938 177.984375 126.660156 182.316406 133.429688 C 184.078125 136.140625 185.566406 138.847656 187.191406 141.554688 C 189.359375 145.484375 191.660156 149.546875 194.367188 153.203125 L 194.910156 154.148438 C 196.671875 157.265625 198.433594 160.515625 200.734375 163.089844 C 205.339844 170.128906 210.621094 176.902344 215.765625 183.402344 C 217.660156 185.839844 219.558594 188.140625 221.316406 190.578125 C 222.402344 189.628906 223.347656 188.683594 224.160156 187.871094 L 223.484375 187.058594 C 221.996094 185.160156 220.371094 183.128906 219.015625 180.964844 C 217.796875 178.933594 216.308594 177.171875 214.816406 175.410156 C 213.464844 173.785156 212.109375 172.160156 210.890625 170.402344 C 210.078125 169.183594 209.265625 167.964844 208.453125 166.609375 C 206.015625 163.089844 203.578125 159.433594 201.546875 155.640625 C 200.058594 153.066406 198.566406 150.492188 197.078125 148.054688 C 194.503906 143.722656 191.796875 139.253906 189.628906 134.648438 L 189.628906 134.515625 Z M 183.128906 200.734375 C 182.585938 202.496094 182.046875 204.390625 181.367188 206.152344 C 180.148438 209.941406 178.796875 214.003906 178.117188 218.066406 C 177.171875 222.808594 175.816406 227.546875 174.597656 232.152344 C 173.921875 234.453125 173.242188 236.757812 172.703125 239.195312 C 182.046875 238.515625 190.847656 235.539062 198.972656 232.421875 C 203.714844 230.253906 208.859375 227.546875 212.109375 222.808594 C 214.546875 219.285156 217.121094 215.496094 219.828125 212.109375 C 218.746094 209.535156 218.203125 207.097656 218.203125 204.527344 C 211.972656 201.953125 206.285156 198.160156 200.871094 194.371094 L 198.566406 192.746094 C 197.890625 192.878906 197.078125 193.152344 196.402344 193.285156 C 195.046875 193.691406 193.691406 194.097656 192.335938 194.371094 C 192.878906 196.402344 192.335938 198.433594 190.847656 199.652344 C 190.035156 200.734375 188.816406 201.277344 187.191406 201.277344 C 186.109375 201.277344 185.023438 201.003906 183.941406 200.734375 C 183.535156 200.871094 183.398438 200.871094 183.128906 200.734375 Z M 230.660156 193.691406 C 231.066406 191.527344 229.308594 190.171875 227.277344 188.953125 C 226.328125 190.441406 225.246094 191.660156 224.027344 192.878906 C 223.484375 193.421875 223.078125 193.964844 222.535156 194.503906 C 223.078125 196.535156 224.839844 198.566406 227.140625 198.296875 C 229.035156 197.078125 230.933594 195.859375 230.660156 193.691406 Z M 171.078125 244.339844 C 177.984375 243.796875 185.566406 241.902344 194.640625 238.246094 C 195.316406 237.976562 195.996094 237.703125 196.671875 237.433594 C 197.347656 237.164062 198.027344 236.890625 198.703125 236.621094 C 189.898438 240.277344 180.554688 242.445312 171.484375 243.121094 Z M 231.203125 204.121094 C 231.339844 205.203125 231.339844 206.152344 232.152344 206.828125 C 234.046875 208.453125 236.890625 209.265625 239.734375 209.128906 C 240.816406 209.128906 241.359375 208.183594 242.171875 206.828125 C 242.308594 206.558594 242.441406 206.285156 242.578125 206.152344 C 243.796875 203.984375 243.253906 201.277344 242.441406 199.246094 C 242.035156 198.296875 241.089844 198.027344 239.597656 197.890625 C 239.191406 197.890625 238.921875 197.753906 238.515625 197.753906 C 236.753906 200.328125 234.589844 203.308594 231.203125 203.578125 C 231.203125 203.847656 231.203125 203.984375 231.203125 204.121094 Z M 234.316406 172.027344 C 233.097656 174.734375 232.152344 177.714844 231.472656 180.828125 C 233.097656 180.152344 234.722656 179.746094 236.214844 179.339844 C 236.484375 177.578125 237.027344 175.683594 237.566406 173.785156 C 236.484375 173.109375 235.402344 172.566406 234.316406 172.027344 Z M 152.523438 124.492188 L 153.203125 126.523438 C 153.742188 128.285156 154.148438 130.046875 154.421875 131.941406 C 155.097656 138.984375 156.046875 148.054688 158.210938 156.859375 C 160.648438 165.253906 164.171875 176.089844 171.347656 184.484375 C 174.460938 188.816406 178.660156 192.339844 182.585938 195.722656 C 183.265625 196.265625 183.804688 196.808594 184.484375 197.347656 C 186.109375 197.753906 187.460938 197.484375 188.410156 196.402344 C 183.128906 194.097656 179.878906 189.359375 176.628906 184.347656 C 171.484375 177.714844 169.179688 169.453125 167.015625 161.597656 L 166.742188 160.515625 C 164.847656 152.253906 162.546875 141.285156 161.191406 130.046875 C 160.378906 124.085938 160.378906 117.992188 160.242188 112.171875 C 160.242188 109.597656 160.242188 107.023438 160.109375 104.316406 C 160.109375 99.035156 158.484375 93.753906 156.722656 89.421875 L 156.316406 89.015625 C 157.265625 94.566406 157.128906 100.253906 156.179688 106.078125 C 155.910156 107.566406 155.640625 109.191406 155.503906 110.679688 C 154.960938 114.609375 154.421875 118.671875 153.066406 122.597656 Z M 103.230469 286.726562 C 104.585938 286.726562 105.804688 287.132812 107.023438 287.539062 C 107.292969 287.671875 107.699219 287.808594 107.972656 287.808594 C 112.304688 289.296875 116.773438 289.703125 120.835938 289.839844 C 121.515625 287.539062 121.785156 284.964844 121.515625 282.257812 C 121.378906 279.953125 120.703125 277.652344 120.023438 275.351562 C 119.347656 273.046875 118.671875 270.746094 118.535156 268.308594 C 116.230469 267.765625 113.792969 267.496094 111.355469 267.226562 C 109.054688 266.953125 106.753906 266.683594 104.449219 266.140625 C 103.230469 266.007812 102.011719 265.734375 100.792969 265.464844 C 97.679688 264.789062 94.429688 264.246094 91.316406 264.246094 C 89.824219 264.246094 88.605469 264.382812 87.253906 264.652344 C 84.003906 265.601562 83.730469 269.796875 83.597656 272.914062 C 83.730469 283.476562 87.386719 294.171875 93.886719 304.058594 C 97.816406 308.121094 102.691406 311.507812 107.429688 314.894531 L 107.699219 315.027344 C 106.753906 312.589844 105.398438 310.425781 103.910156 308.257812 C 102.824219 306.496094 101.605469 304.734375 100.792969 302.839844 L 100.792969 302.703125 C 99.304688 300.265625 97.816406 297.695312 97.949219 294.578125 L 97.949219 294.445312 C 97.949219 292.007812 97.949219 288.484375 100.792969 287.132812 C 101.335938 286.996094 102.285156 286.726562 103.230469 286.726562 Z M 134.378906 266.546875 C 137.628906 267.226562 141.015625 267.496094 144.671875 267.496094 C 149.953125 267.496094 155.367188 266.953125 160.378906 266.277344 L 161.597656 266.007812 C 166.609375 264.921875 171.753906 263.703125 176.492188 261.539062 C 188.003906 256.933594 203.714844 248.265625 213.597656 233.101562 C 215.359375 230.796875 216.847656 228.359375 218.472656 225.921875 C 220.640625 222.671875 222.808594 219.285156 225.246094 216.171875 C 224.433594 215.496094 223.621094 214.683594 222.535156 214.140625 C 220.777344 216.441406 219.152344 219.015625 217.390625 221.316406 C 213.191406 227.410156 208.722656 233.777344 203.441406 239.195312 C 193.960938 249.484375 180.960938 257.070312 166.878906 260.453125 C 165.523438 260.726562 164.035156 260.996094 162.679688 261.402344 C 158.484375 262.351562 154.015625 263.296875 149.546875 263.027344 L 147.648438 262.890625 C 141.554688 262.621094 135.328125 262.214844 129.234375 260.859375 C 127.742188 260.453125 126.253906 260.183594 124.765625 260.046875 C 122.597656 259.777344 120.296875 259.371094 118.128906 258.558594 C 116.097656 257.746094 114.066406 257.070312 112.035156 256.527344 C 109.460938 255.714844 106.753906 254.902344 104.316406 253.820312 C 102.554688 253.140625 100.929688 252.464844 99.167969 251.789062 C 91.449219 248.671875 83.460938 245.558594 75.878906 241.902344 C 68.566406 238.382812 60.847656 236.078125 52.992188 234.996094 C 53.398438 237.164062 53.941406 239.464844 54.617188 241.632812 C 70.597656 245.152344 85.761719 251.382812 97.273438 256.257812 C 107.292969 260.453125 119.210938 263.703125 134.378906 266.546875 Z M 229.578125 215.765625 C 232.015625 216.714844 235.402344 217.933594 238.921875 217.933594 C 240.546875 217.933594 242.035156 217.660156 243.527344 217.121094 C 244.472656 215.359375 245.691406 213.328125 247.859375 212.246094 C 248.402344 211.839844 249.078125 211.566406 249.753906 211.296875 C 250.972656 210.753906 252.191406 210.347656 252.734375 209.128906 C 254.628906 205.746094 255.308594 201.410156 254.628906 196.941406 C 253.546875 189.628906 247.589844 183.671875 240.816406 182.859375 C 236.214844 182.183594 232.015625 184.078125 229.308594 185.972656 C 230.796875 186.652344 232.285156 187.871094 233.777344 189.496094 C 236.621094 188.277344 238.652344 188.277344 240.277344 189.496094 C 245.691406 191.796875 246.910156 198.160156 247.183594 201.546875 C 247.722656 205.066406 246.371094 208.859375 243.253906 211.839844 C 240.546875 213.464844 237.433594 213.328125 233.234375 211.839844 C 229.441406 210.484375 226.734375 206.558594 226.058594 201.953125 C 224.972656 201.683594 223.890625 201.277344 222.808594 201.003906 C 221.996094 204.253906 221.183594 208.046875 223.753906 210.484375 C 226.191406 211.703125 228.089844 213.734375 229.578125 215.765625 Z M 246.777344 217.796875 C 248.128906 219.015625 250.160156 220.371094 252.464844 220.371094 C 253.003906 220.371094 253.546875 220.234375 254.089844 220.097656 C 255.984375 217.390625 258.015625 214.953125 259.777344 212.921875 C 260.453125 211.566406 259.503906 210.347656 257.746094 208.589844 C 257.472656 208.316406 257.203125 208.046875 256.933594 207.777344 C 256.527344 208.453125 256.121094 209.265625 255.847656 209.941406 L 255.441406 210.621094 L 257.746094 212.515625 L 256.527344 212.921875 C 255.847656 213.058594 255.171875 213.328125 254.496094 213.464844 C 251.515625 214.277344 248.265625 215.089844 246.777344 217.796875 Z M 258.558594 219.964844 L 258.964844 220.371094 C 261.265625 222.535156 263.839844 224.839844 265.464844 227.683594 C 266.410156 229.308594 266.816406 231.070312 267.359375 232.695312 C 267.765625 234.320312 268.171875 235.808594 268.984375 237.296875 C 270.609375 240.277344 272.640625 243.527344 275.890625 244.339844 C 280.359375 245.421875 285.507812 244.609375 291.195312 241.902344 C 285.777344 240.820312 281.578125 238.246094 279.414062 234.589844 L 278.734375 233.371094 L 277.652344 232.828125 C 276.164062 232.015625 275.078125 231.070312 274.265625 229.851562 C 272.234375 227.003906 269.933594 224.433594 267.628906 221.859375 C 265.871094 219.828125 263.972656 217.796875 262.347656 215.765625 L 261.941406 216.171875 C 260.859375 217.390625 259.640625 218.609375 258.558594 219.964844 Z M 294.984375 237.703125 C 301.078125 237.433594 306.765625 234.453125 310.695312 229.847656 C 312.859375 226.871094 313.671875 223.078125 314.484375 219.558594 C 314.621094 218.878906 314.757812 218.203125 314.890625 217.527344 C 315.703125 212.652344 316.382812 207.503906 315.027344 202.765625 C 311.507812 191.660156 305.414062 181.640625 299.320312 172.296875 C 299.046875 171.890625 298.777344 171.484375 298.507812 170.941406 C 297.558594 169.453125 296.476562 167.828125 295.121094 166.609375 C 291.601562 164.984375 287.671875 164.441406 283.882812 163.902344 C 280.765625 163.496094 277.515625 163.089844 274.539062 162.003906 L 274.402344 162.003906 L 273.996094 162.140625 C 272.371094 162.683594 270.609375 163.089844 268.847656 163.359375 C 265.871094 163.902344 263.160156 164.441406 260.722656 165.933594 C 260.183594 166.203125 259.640625 166.472656 259.097656 166.878906 C 255.441406 168.910156 251.652344 170.941406 249.621094 174.464844 C 249.347656 175.683594 249.214844 176.765625 249.214844 177.984375 C 249.078125 179.339844 249.078125 180.558594 248.671875 181.910156 C 255.847656 186.378906 259.777344 195.722656 258.015625 204.527344 C 258.285156 204.660156 258.558594 204.933594 258.828125 205.066406 C 260.722656 206.421875 262.890625 207.777344 263.566406 210.347656 C 264.378906 213.058594 266.410156 215.089844 268.441406 217.253906 C 269.253906 218.203125 270.203125 219.152344 271.015625 220.097656 C 274.265625 223.484375 276.976562 227.410156 278.734375 231.882812 L 279.140625 232.828125 L 280.359375 233.507812 C 284.015625 235.539062 288.078125 237.839844 292.414062 237.839844 C 293.226562 237.976562 294.171875 237.839844 294.984375 237.703125 Z M 294.984375 163.222656 C 294.308594 160.515625 292.546875 156.453125 288.621094 155.503906 C 285.371094 154.691406 281.851562 154.285156 278.058594 154.285156 C 274.265625 154.285156 270.066406 154.691406 264.785156 155.503906 C 257.066406 157.535156 248.128906 160.246094 240.546875 165.253906 C 241.765625 166.339844 243.121094 167.285156 244.472656 168.371094 C 249.890625 165.253906 255.847656 162.953125 262.214844 161.464844 C 265.734375 160.785156 270.203125 159.972656 273.859375 160.652344 L 274.132812 160.652344 L 274.402344 160.515625 C 276.976562 159.703125 279.820312 159.566406 282.664062 159.972656 C 287.402344 160.921875 291.328125 161.734375 294.984375 163.222656 Z M 286.859375 152.253906 C 285.640625 150.222656 284.421875 148.191406 283.339844 146.160156 C 281.308594 142.503906 279.277344 138.710938 276.433594 135.460938 C 274.945312 133.296875 273.453125 131.128906 271.964844 128.960938 C 269.660156 125.578125 267.222656 122.191406 265.058594 118.535156 C 263.566406 115.960938 262.078125 113.390625 260.589844 110.679688 C 257.878906 105.804688 255.035156 100.660156 251.785156 95.921875 C 249.890625 93.347656 248.941406 90.234375 247.996094 87.117188 C 247.046875 84.273438 246.234375 81.566406 244.746094 79.265625 C 239.734375 75.878906 236.214844 71.136719 232.964844 66.398438 C 230.796875 63.285156 228.496094 60.167969 225.785156 57.597656 C 224.160156 56.378906 222.265625 55.023438 219.964844 53.667969 C 215.359375 50.960938 209.808594 50.554688 204.390625 50.148438 L 202.765625 50.011719 C 202.496094 51.503906 202.089844 53.261719 201.683594 54.886719 L 201.410156 55.972656 L 200.191406 54.886719 C 198.839844 53.804688 197.347656 52.585938 196.671875 50.691406 C 195.453125 47.847656 196.265625 44.730469 196.941406 41.886719 L 197.078125 41.210938 C 197.753906 38.910156 198.296875 36.472656 198.839844 34.035156 C 199.652344 30.511719 200.464844 26.855469 201.816406 23.335938 C 202.765625 21.035156 203.441406 18.597656 204.121094 16.292969 C 204.390625 15.480469 204.660156 14.535156 204.933594 13.585938 C 204.660156 13.992188 204.390625 14.398438 204.121094 14.804688 C 201.816406 17.917969 200.871094 21.710938 199.921875 25.503906 C 199.515625 26.855469 199.246094 28.347656 198.703125 29.835938 C 198.566406 31.054688 197.347656 31.730469 196.535156 32.136719 L 195.585938 32.542969 L 195.585938 31.460938 C 195.585938 30.511719 195.585938 29.566406 195.585938 28.617188 C 195.585938 28.347656 195.585938 28.210938 195.585938 27.941406 C 194.910156 29.699219 195.046875 31.597656 195.859375 33.222656 C 197.210938 35.792969 196.804688 38.636719 196.535156 41.347656 C 196.535156 41.753906 196.398438 42.160156 196.398438 42.566406 C 196.265625 43.785156 195.992188 44.867188 195.859375 45.949219 C 195.453125 48.792969 195.046875 51.773438 193.960938 54.480469 L 196.808594 55.972656 L 193.828125 57.867188 C 187.054688 58.816406 181.234375 60.304688 176.222656 62.472656 L 175.273438 62.878906 L 175.273438 62.472656 C 173.648438 64.097656 171.890625 65.449219 170.128906 66.804688 C 168.773438 67.753906 167.421875 68.699219 166.335938 69.785156 C 165.929688 70.191406 165.390625 70.597656 164.984375 71.003906 C 163.359375 72.492188 161.597656 74.117188 159.566406 75.199219 L 158.210938 76.011719 L 158.617188 74.386719 C 158.753906 73.980469 158.890625 73.574219 158.890625 73.035156 L 158.210938 73.441406 C 155.640625 75.066406 153.335938 76.824219 152.660156 79.535156 C 152.390625 81.160156 153.609375 82.378906 154.828125 83.597656 C 156.722656 80.753906 159.566406 78.859375 162.953125 78.453125 C 168.234375 73.035156 175.410156 69.648438 181.097656 66.941406 L 182.316406 66.398438 C 186.378906 64.773438 190.578125 63.148438 195.046875 63.285156 L 197.621094 63.824219 L 195.589844 64.910156 C 195.046875 65.179688 194.503906 65.449219 193.960938 65.722656 C 193.148438 66.128906 192.335938 66.535156 191.660156 66.941406 C 191.117188 67.617188 190.847656 68.566406 190.441406 69.378906 C 190.441406 69.511719 190.304688 69.648438 190.304688 69.785156 C 191.660156 70.191406 193.015625 70.324219 194.640625 70.324219 C 195.453125 70.324219 196.402344 70.324219 197.347656 70.460938 C 202.902344 71.136719 210.753906 72.628906 216.578125 77.910156 C 219.421875 79.804688 220.910156 82.921875 222.265625 86.304688 L 222.402344 86.578125 L 223.484375 87.390625 C 225.378906 88.878906 227.140625 90.367188 228.089844 92.671875 L 228.496094 93.753906 L 227.410156 93.617188 C 224.839844 93.347656 223.753906 91.316406 222.808594 89.421875 C 222.671875 89.015625 222.402344 88.742188 222.265625 88.335938 L 221.183594 87.117188 C 217.121094 82.515625 210.484375 76.828125 201.683594 75.335938 C 193.691406 73.441406 187.054688 73.847656 182.046875 76.691406 C 180.691406 78.992188 180.285156 81.566406 180.828125 83.867188 C 182.453125 85.898438 185.160156 86.578125 189.492188 85.765625 L 191.253906 85.628906 C 193.148438 85.492188 195.046875 85.222656 196.941406 85.222656 C 200.597656 85.222656 203.441406 85.898438 205.878906 87.523438 L 206.691406 88.066406 C 210.484375 89.421875 212.785156 92.671875 215.089844 95.648438 C 216.441406 97.546875 217.933594 99.578125 219.828125 101.066406 L 220.777344 101.878906 L 219.558594 102.285156 C 219.015625 102.421875 218.472656 102.554688 218.066406 102.554688 C 215.359375 102.554688 213.597656 100.253906 211.972656 98.222656 C 211.566406 97.679688 211.027344 97.003906 210.621094 96.460938 C 210.621094 96.597656 210.484375 96.734375 210.484375 96.867188 C 209.671875 98.765625 208.589844 101.066406 206.152344 101.609375 C 205.339844 102.015625 204.390625 102.148438 203.441406 102.148438 C 201.140625 102.148438 198.839844 101.066406 197.214844 99.171875 C 195.722656 97.546875 194.910156 95.378906 194.910156 93.347656 C 192.878906 93.078125 190.710938 92.671875 188.953125 91.046875 C 188.410156 91.722656 188.410156 92.804688 188.273438 94.023438 C 188.140625 95.648438 188.003906 97.546875 186.242188 98.492188 L 185.835938 98.765625 L 185.429688 98.359375 C 184.347656 97.140625 183.671875 95.785156 182.992188 94.429688 C 181.910156 92.265625 180.960938 90.097656 178.660156 89.421875 C 177.847656 89.015625 177.171875 88.878906 176.492188 88.878906 C 174.597656 88.878906 172.566406 90.234375 170.941406 91.585938 C 170.941406 91.585938 171.078125 91.585938 171.078125 91.722656 C 172.160156 92.128906 173.378906 92.535156 174.328125 93.347656 C 175.410156 94.429688 175.679688 95.648438 175.953125 96.867188 C 176.085938 97.140625 176.085938 97.546875 176.222656 97.816406 C 179.335938 101.335938 182.585938 104.992188 185.703125 108.378906 C 189.492188 112.578125 193.421875 116.910156 197.078125 121.242188 C 200.464844 124.898438 203.847656 128.828125 207.097656 132.484375 C 212.515625 138.710938 218.066406 145.078125 224.027344 151.035156 C 227.140625 154.285156 230.660156 157.128906 234.183594 159.839844 C 235.671875 160.921875 237.027344 162.140625 238.378906 163.222656 C 243.390625 159.160156 249.753906 156.183594 257.203125 154.285156 C 266.277344 151.035156 276.839844 150.359375 286.859375 152.253906 Z M 207.234375 4.917969 C 207.097656 4.785156 206.964844 4.648438 206.828125 4.648438 C 206.285156 4.378906 205.746094 4.105469 205.203125 4.105469 C 203.847656 4.105469 202.496094 4.785156 201.140625 5.460938 L 200.734375 5.730469 C 188.546875 12.367188 180.148438 24.691406 173.648438 35.660156 C 172.972656 37.011719 172.160156 38.230469 171.347656 39.585938 C 168.910156 43.648438 166.335938 47.980469 165.117188 52.585938 L 164.984375 53.941406 C 164.578125 58.542969 164.171875 63.285156 163.492188 68.023438 C 163.628906 67.886719 163.898438 67.753906 164.035156 67.480469 C 167.285156 64.503906 170.671875 61.523438 175.140625 61.253906 L 175.546875 61.253906 L 175.546875 60.710938 L 175.816406 60.574219 C 177.578125 59.492188 179.335938 58.679688 180.960938 57.867188 C 180.828125 55.835938 180.285156 53.941406 179.609375 52.042969 C 178.796875 49.199219 177.847656 46.222656 178.390625 42.972656 C 178.796875 38.503906 179.878906 33.898438 181.640625 28.886719 C 183.941406 22.117188 188.546875 15.886719 195.316406 10.066406 C 198.839844 7.222656 202.902344 5.460938 206.828125 5.054688 Z M 161.734375 57.054688 C 161.597656 57.054688 161.597656 57.054688 161.460938 57.054688 C 160.378906 57.324219 159.429688 57.460938 158.484375 58.003906 C 156.585938 61.792969 155.910156 66.128906 155.367188 70.191406 C 155.234375 70.867188 155.097656 71.679688 155.097656 72.355469 L 155.234375 72.355469 C 156.179688 72.355469 157.128906 72.355469 157.941406 72.355469 L 159.160156 72.355469 C 159.703125 69.785156 160.109375 67.210938 160.378906 64.636719 C 160.921875 62.199219 161.191406 59.492188 161.734375 57.054688 Z M 69.917969 105.671875 C 73.167969 98.359375 77.503906 88.742188 82.511719 79.398438 C 82.917969 78.585938 83.324219 77.773438 83.730469 76.824219 C 85.085938 74.253906 86.441406 71.542969 86.980469 68.699219 C 86.035156 67.210938 84.542969 66.128906 83.054688 65.042969 L 82.378906 64.503906 C 77.367188 61.117188 72.761719 58.273438 68.566406 55.835938 L 68.023438 55.699219 C 66.667969 55.023438 65.316406 54.347656 63.960938 54.347656 C 63.554688 54.347656 63.148438 54.347656 62.742188 54.480469 C 62.199219 54.753906 61.660156 55.292969 61.253906 55.972656 C 61.117188 56.105469 60.980469 56.378906 60.847656 56.511719 C 52.585938 68.292969 45.003906 80.347656 38.5 92.398438 C 20.492188 126.253906 9.792969 160.109375 7.085938 193.015625 C 4.375 224.160156 9.386719 254.359375 21.4375 280.359375 C 32.273438 304.058594 49.472656 325.183594 71.273438 341.300781 C 92.398438 357.144531 117.859375 368.652344 146.703125 375.695312 C 152.523438 377.183594 158.484375 377.863281 164.441406 378.539062 C 166.472656 378.808594 168.503906 378.945312 170.535156 379.214844 C 177.304688 380.027344 184.484375 380.300781 191.796875 380.300781 C 204.527344 380.300781 218.066406 379.214844 233.371094 376.914062 C 265.464844 369.871094 294.578125 356.601562 317.464844 338.726562 C 337.640625 322.882812 353.757812 302.570312 364.050781 279.953125 C 375.425781 255.039062 380.433594 226.058594 378.402344 196.265625 C 376.507812 168.371094 368.925781 139.660156 355.652344 110.679688 C 346.578125 91.585938 335.746094 73.035156 323.289062 55.699219 C 322.746094 54.753906 321.933594 54.347656 320.851562 54.347656 C 319.359375 54.347656 317.734375 55.160156 316.921875 55.566406 C 310.695312 59.085938 305.277344 62.605469 300.402344 66.128906 L 299.996094 66.535156 C 298.640625 67.753906 297.695312 68.566406 298.234375 69.785156 C 299.320312 73.035156 300.945312 76.148438 302.433594 79.265625 L 303.246094 80.890625 C 307.578125 89.148438 311.507812 97.816406 314.757812 105.128906 C 331.953125 140.878906 340.214844 178.527344 338.453125 214.003906 C 337.371094 232.421875 333.445312 248.945312 326.808594 263.164062 C 317.195312 284.015625 301.757812 302.433594 282.257812 316.382812 C 259.234375 332.769531 231.472656 342.519531 201.953125 344.683594 C 191.117188 345.632812 179.066406 344.820312 164.441406 342.246094 C 135.597656 336.964844 109.460938 324.101562 88.878906 305.140625 C 68.972656 286.859375 55.160156 263.164062 49.878906 238.382812 C 46.628906 223.890625 45.542969 207.777344 46.761719 190.441406 C 48.792969 161.871094 56.648438 133.296875 69.917969 105.671875 Z M 240.816406 59.355469 C 241.359375 57.597656 242.035156 55.835938 242.714844 54.074219 C 245.558594 45.949219 248.671875 37.554688 249.753906 28.886719 C 250.027344 24.824219 249.484375 21.710938 247.722656 19.679688 C 246.777344 19.410156 245.828125 19.679688 245.015625 20.222656 L 247.453125 21.304688 L 247.316406 21.847656 C 247.046875 23.335938 246.503906 24.824219 246.097656 26.316406 C 245.285156 28.617188 244.609375 30.648438 244.609375 32.949219 C 244.609375 37.417969 243.933594 42.023438 242.441406 47.574219 L 242.308594 47.847656 C 241.089844 51.230469 239.734375 54.886719 239.328125 58.542969 C 239.597656 59.085938 239.871094 59.628906 240.277344 60.304688 C 240.546875 59.898438 240.683594 59.628906 240.816406 59.355469 Z M 242.578125 21.980469 L 242.308594 22.117188 C 238.109375 25.773438 234.589844 30.378906 231.203125 34.710938 C 229.578125 36.878906 227.816406 39.179688 225.921875 41.347656 C 225.109375 42.160156 224.296875 42.835938 223.484375 43.511719 C 225.921875 44.460938 228.496094 45.542969 230.796875 47.035156 C 231.203125 47.304688 231.609375 47.574219 231.878906 47.980469 C 231.878906 47.574219 231.746094 47.167969 231.746094 46.761719 C 232.015625 36.605469 237.433594 27.941406 242.578125 21.980469 Z M 242.578125 109.191406 C 240.410156 109.191406 238.785156 108.921875 237.296875 108.515625 L 235.265625 107.835938 L 236.484375 109.460938 C 238.378906 112.035156 241.222656 112.171875 243.933594 112.304688 C 245.015625 112.304688 246.097656 112.441406 247.046875 112.710938 L 248.808594 113.117188 L 247.722656 111.628906 C 247.589844 111.492188 247.453125 111.222656 247.316406 110.953125 C 246.777344 110.140625 246.097656 109.054688 244.878906 109.054688 C 244.746094 109.054688 244.609375 109.054688 244.609375 109.054688 C 243.933594 109.191406 243.253906 109.191406 242.578125 109.191406 Z M 240.410156 112.984375 L 238.378906 112.171875 L 239.597656 113.929688 C 241.902344 117.453125 246.234375 117.046875 249.484375 117.046875 L 250.160156 117.046875 L 250.433594 114.066406 L 249.753906 113.929688 C 248.671875 113.796875 247.589844 113.796875 246.640625 113.796875 C 244.339844 113.796875 242.308594 113.796875 240.410156 112.984375 Z M 234.316406 105.128906 C 234.996094 106.078125 235.671875 107.160156 237.027344 107.703125 C 239.191406 108.242188 241.359375 108.378906 243.527344 108.515625 L 244.746094 108.648438 L 244.066406 107.566406 C 242.714844 105.265625 240.277344 104.722656 238.109375 104.316406 C 236.753906 104.046875 235.535156 103.910156 234.589844 103.234375 L 231.746094 101.742188 L 233.640625 104.316406 C 233.910156 104.453125 234.046875 104.859375 234.316406 105.128906 Z M 231.203125 82.921875 L 230.660156 81.703125 C 230.121094 80.210938 229.171875 78.992188 228.222656 77.640625 C 227.277344 76.285156 226.464844 75.066406 225.785156 73.574219 C 223.890625 68.972656 221.722656 64.367188 217.660156 61.117188 C 217.121094 60.710938 216.578125 60.441406 216.171875 60.035156 C 213.191406 58.003906 210.214844 55.835938 206.421875 55.566406 L 204.253906 55.429688 L 205.878906 56.785156 C 207.097656 57.730469 208.316406 58.679688 209.671875 59.628906 C 213.597656 62.472656 217.527344 65.449219 219.691406 69.917969 C 220.097656 70.597656 220.371094 71.410156 220.777344 72.222656 C 222.671875 76.554688 224.703125 81.429688 229.984375 82.648438 Z M 194.371094 104.046875 C 197.621094 106.347656 201.410156 107.566406 204.933594 107.566406 C 206.421875 107.566406 207.910156 107.296875 209.402344 106.890625 C 210.214844 106.617188 211.160156 106.347656 211.972656 106.210938 C 213.734375 105.804688 215.628906 105.398438 216.984375 104.179688 L 217.527344 103.773438 L 216.984375 103.234375 C 216.171875 102.421875 215.222656 102.015625 213.871094 102.015625 C 212.785156 102.015625 211.566406 102.285156 210.484375 102.691406 C 209.808594 102.828125 209.128906 103.097656 208.453125 103.234375 C 205.066406 104.316406 200.871094 103.640625 196.808594 101.335938 C 195.316406 100.523438 194.640625 99.035156 193.691406 97.546875 C 193.015625 96.191406 192.203125 94.835938 190.984375 93.753906 L 189.628906 92.535156 L 189.898438 94.296875 C 190.578125 97.816406 191.390625 101.609375 194.371094 104.046875 Z M 243.390625 118.128906 L 241.496094 117.859375 L 242.847656 119.210938 C 245.152344 121.515625 248.128906 121.378906 250.972656 121.378906 C 251.785156 121.378906 252.597656 121.378906 253.410156 121.378906 L 255.171875 121.515625 L 253.953125 120.296875 C 253.816406 120.160156 253.683594 119.890625 253.410156 119.617188 C 253.003906 118.941406 252.328125 117.992188 251.246094 117.992188 C 251.109375 117.992188 250.839844 117.992188 250.839844 117.992188 C 248.808594 118.265625 245.691406 118.398438 243.390625 118.128906 Z M 300.132812 208.589844 C 299.859375 206.828125 299.589844 205.066406 298.914062 203.441406 C 298.234375 201.683594 296.339844 200.328125 294.308594 200.328125 C 293.089844 200.328125 292.007812 200.871094 291.328125 201.953125 C 289.027344 205.472656 288.890625 210.484375 290.789062 214.953125 L 291.601562 216.984375 L 292.007812 214.816406 C 292.277344 213.734375 292.277344 212.652344 292.277344 211.433594 C 292.414062 209.128906 292.414062 206.828125 294.039062 205.203125 L 294.171875 205.066406 C 294.308594 204.933594 294.714844 204.660156 294.984375 204.660156 L 295.121094 204.933594 C 296.070312 206.691406 295.390625 208.316406 294.578125 210.214844 C 293.765625 212.109375 292.820312 214.140625 293.765625 216.171875 C 294.308594 218.066406 295.796875 218.878906 297.289062 219.691406 C 296.882812 220.503906 296.476562 221.316406 296.203125 222.265625 L 295.527344 223.890625 L 297.152344 223.078125 C 301.214844 221.046875 302.027344 216.035156 300.808594 212.109375 C 300.539062 211.160156 300.402344 209.808594 300.132812 208.589844 Z M 301.351562 197.484375 C 298.640625 195.183594 295.390625 194.097656 292.546875 194.503906 C 289.433594 194.777344 286.320312 196.535156 286.589844 199.652344 L 286.726562 200.597656 L 287.539062 200.191406 C 287.945312 200.058594 288.351562 199.921875 288.757812 199.652344 C 291.464844 198.566406 294.171875 197.484375 296.609375 198.703125 C 298.777344 199.515625 300.132812 201.277344 301.484375 203.308594 C 302.164062 204.253906 302.976562 205.339844 303.789062 206.285156 L 305.414062 207.910156 L 305.007812 205.746094 C 304.601562 202.765625 303.789062 199.515625 301.351562 197.484375 Z M 241.359375 151.984375 L 241.359375 151.035156 C 241.222656 148.191406 238.652344 146.429688 234.046875 146.160156 L 232.285156 146.023438 L 233.503906 147.242188 C 235.671875 149.546875 238.109375 150.898438 240.410156 151.578125 Z M 236.621094 144.398438 L 236.484375 143.585938 C 235.808594 140.203125 231.472656 139.117188 228.628906 139.796875 L 226.871094 140.203125 L 228.359375 141.015625 C 228.902344 141.285156 229.441406 141.691406 230.121094 142.097656 C 231.878906 143.179688 233.640625 144.398438 235.808594 144.398438 Z M 212.921875 118.804688 L 214.683594 118.941406 L 213.464844 117.585938 C 213.328125 117.453125 213.191406 117.179688 213.058594 117.046875 C 212.246094 116.097656 211.160156 114.878906 209.671875 114.742188 C 206.558594 114.203125 203.308594 113.390625 199.921875 112.578125 C 196.402344 111.492188 193.554688 108.921875 190.984375 106.617188 C 189.765625 105.535156 188.816406 104.179688 187.867188 102.691406 C 187.054688 101.472656 186.378906 100.253906 185.296875 99.304688 L 183.941406 97.816406 L 184.210938 99.847656 C 185.023438 106.484375 190.304688 111.222656 194.910156 114.609375 C 199.515625 117.453125 205.066406 117.992188 210.347656 118.535156 C 211.160156 118.671875 211.972656 118.671875 212.921875 118.804688 Z M 239.328125 152.390625 L 237.972656 152.660156 L 238.921875 153.609375 C 240.953125 155.503906 242.847656 156.453125 244.878906 156.453125 L 246.097656 156.453125 L 245.558594 155.503906 C 244.203125 153.203125 241.765625 151.984375 239.328125 152.390625 Z M 231.878906 138.304688 L 231.746094 137.222656 C 231.339844 134.921875 229.441406 133.703125 226.464844 133.703125 C 225.652344 133.703125 224.839844 133.835938 224.027344 133.972656 L 222.402344 134.378906 L 223.890625 135.191406 C 226.058594 136.410156 228.359375 137.359375 230.933594 137.898438 Z M 227.683594 132.484375 L 228.902344 132.347656 L 228.089844 131.398438 C 225.515625 128.691406 221.589844 127.742188 218.878906 129.640625 L 217.527344 130.585938 L 219.015625 130.859375 C 219.828125 130.992188 220.777344 131.265625 221.589844 131.671875 C 223.078125 132.210938 224.703125 132.753906 226.328125 132.753906 C 226.871094 132.617188 227.277344 132.617188 227.683594 132.484375 Z M 219.828125 123.410156 L 219.152344 122.328125 C 217.933594 120.296875 215.765625 120.023438 214.277344 120.023438 C 213.464844 120.023438 212.652344 120.160156 211.839844 120.160156 C 211.433594 120.160156 210.890625 120.296875 210.484375 120.296875 L 208.046875 120.429688 L 210.214844 121.515625 C 212.785156 122.867188 215.765625 123.140625 218.472656 123.273438 Z M 224.433594 128.691406 L 223.890625 127.472656 C 222.941406 125.304688 220.640625 123.816406 218.066406 123.816406 C 216.714844 123.816406 215.359375 124.222656 214.277344 124.898438 L 213.058594 125.710938 L 214.410156 126.117188 C 216.984375 126.929688 219.691406 127.609375 223.078125 128.421875 Z M 224.433594 128.691406 " fill-opacity="1" fill-rule="nonzero"/><g fill="#000000" fill-opacity="1"><g transform="translate(120.886925, 307.435296)"><g><path d="M 0.0625 0 L 0.0625 -0.09375 L 0.125 -0.09375 L 0.125 0 Z M 0.0625 0 "/></g></g></g></svg>