<svg width="78" height="26" viewBox="0 0 78 26" fill="none" xmlns="http://www.w3.org/2000/svg">
<g filter="url(#filter0_d_31_42)">
<path d="M17.46 6.732L17.736 6.636C17.84 6.636 17.9 6.668 17.916 6.732C18.084 7.7 18.168 8.272 18.168 8.448C18.168 8.616 18.112 8.7 18 8.7C17.928 8.7 17.856 8.616 17.784 8.448C17.72 8.272 17.64 8.112 17.544 7.968C17.456 7.824 17.392 7.732 17.352 7.692C17.312 7.652 17.208 7.556 17.04 7.404C16.608 7.02 16.112 6.828 15.552 6.828C15 6.828 14.556 6.948 14.22 7.188C13.884 7.428 13.716 7.74 13.716 8.124C13.716 8.508 13.812 8.816 14.004 9.048C14.204 9.28 14.468 9.46 14.796 9.588C15.124 9.716 15.468 9.836 15.828 9.948C16.796 10.252 17.512 10.648 17.976 11.136C18.296 11.48 18.456 11.908 18.456 12.42C18.456 13.26 18.188 13.928 17.652 14.424C17.116 14.912 16.452 15.156 15.66 15.156C15.108 15.156 14.664 15.124 14.328 15.06C13.992 15.004 13.648 14.884 13.296 14.7C13.192 14.636 13.068 14.324 12.924 13.764C12.78 13.204 12.708 12.856 12.708 12.72C12.708 12.576 12.76 12.504 12.864 12.504C12.976 12.504 13.044 12.544 13.068 12.624C13.364 13.336 13.712 13.84 14.112 14.136C14.544 14.464 15.064 14.628 15.672 14.628C16.288 14.628 16.776 14.472 17.136 14.16C17.504 13.84 17.688 13.424 17.688 12.912C17.688 12.536 17.564 12.224 17.316 11.976C17.068 11.72 16.784 11.536 16.464 11.424C15.272 11.024 14.464 10.7 14.04 10.452C13.312 10.02 12.948 9.44 12.948 8.712C12.948 7.984 13.204 7.408 13.716 6.984C14.236 6.552 14.908 6.336 15.732 6.336C16.036 6.336 16.396 6.404 16.812 6.54C17.236 6.668 17.452 6.732 17.46 6.732ZM20.3844 10.548L20.1564 10.56C20.0204 10.56 19.9524 10.504 19.9524 10.392C19.9524 10.312 19.9884 10.244 20.0604 10.188C20.3644 9.988 20.6684 9.688 20.9724 9.288C21.1004 9.104 21.2004 8.972 21.2724 8.892C21.3524 8.804 21.4324 8.76 21.5124 8.76C21.5924 8.76 21.6324 8.852 21.6324 9.036C21.6324 9.036 21.6164 9.264 21.5844 9.72C21.5844 9.832 21.6044 9.9 21.6444 9.924C21.6924 9.948 21.8364 9.96 22.0764 9.96H22.4964C22.8564 9.96 23.0764 9.94 23.1564 9.9C23.3004 9.828 23.3884 9.792 23.4204 9.792C23.5004 9.792 23.5404 9.836 23.5404 9.924C23.5404 9.988 23.4884 10.116 23.3844 10.308C23.2804 10.492 23.2044 10.584 23.1564 10.584C22.7964 10.584 22.5444 10.576 22.4004 10.56C22.2564 10.544 22.1604 10.536 22.1124 10.536C22.0644 10.528 22.0204 10.524 21.9804 10.524C21.9484 10.516 21.9244 10.512 21.9084 10.512L21.8844 10.5C21.7324 10.5 21.6324 10.524 21.5844 10.572C21.5444 10.62 21.5244 10.728 21.5244 10.896L21.4764 13.128C21.4764 13.648 21.5404 14.012 21.6684 14.22C21.8044 14.42 22.0844 14.52 22.5084 14.52C22.6764 14.52 22.8604 14.484 23.0604 14.412C23.2684 14.332 23.3804 14.292 23.3964 14.292C23.4764 14.292 23.5164 14.344 23.5164 14.448C23.5164 14.552 23.3764 14.692 23.0964 14.868C22.8244 15.036 22.5284 15.12 22.2084 15.12C21.1284 15.12 20.5884 14.652 20.5884 13.716V13.536L20.6364 10.74C20.6364 10.66 20.6204 10.608 20.5884 10.584C20.5564 10.56 20.4884 10.548 20.3844 10.548ZM26.202 15.18C25.258 15.18 24.786 14.78 24.786 13.98C24.786 13.404 25.026 13.008 25.506 12.792C25.906 12.624 26.518 12.472 27.342 12.336C27.366 12.328 27.398 12.324 27.438 12.324C27.478 12.316 27.518 12.308 27.558 12.3C27.606 12.292 27.642 12.284 27.666 12.276C27.722 12.252 27.75 12.196 27.75 12.108L27.774 11.484C27.774 11.028 27.642 10.7 27.378 10.5C27.114 10.292 26.858 10.188 26.61 10.188C26.034 10.188 25.746 10.428 25.746 10.908L25.794 11.34C25.794 11.5 25.722 11.58 25.578 11.58C25.466 11.58 25.342 11.56 25.206 11.52C24.958 11.44 24.834 11.304 24.834 11.112C24.834 10.8 25.042 10.504 25.458 10.224C25.882 9.936 26.306 9.792 26.73 9.792C27.154 9.792 27.486 9.832 27.726 9.912C27.966 9.992 28.142 10.084 28.254 10.188C28.374 10.284 28.466 10.416 28.53 10.584C28.61 10.784 28.65 11.1 28.65 11.532C28.65 11.956 28.638 12.336 28.614 12.672C28.598 13 28.59 13.3 28.59 13.572C28.59 13.844 28.622 14.068 28.686 14.244C28.75 14.412 28.826 14.52 28.914 14.568C29.002 14.616 29.09 14.644 29.178 14.652C29.394 14.668 29.502 14.732 29.502 14.844C29.502 15.012 29.25 15.096 28.746 15.096C28.538 15.096 28.358 15.04 28.206 14.928C28.062 14.816 27.958 14.708 27.894 14.604C27.83 14.492 27.794 14.436 27.786 14.436C27.778 14.436 27.746 14.464 27.69 14.52C27.634 14.568 27.554 14.628 27.45 14.7C27.354 14.772 27.242 14.844 27.114 14.916C26.818 15.092 26.514 15.18 26.202 15.18ZM27.666 12.504L27.546 12.528C27.362 12.56 27.246 12.58 27.198 12.588C27.15 12.596 27.038 12.62 26.862 12.66C26.686 12.7 26.562 12.736 26.49 12.768C26.426 12.8 26.33 12.852 26.202 12.924C26.082 12.988 25.994 13.056 25.938 13.128C25.794 13.352 25.722 13.588 25.722 13.836C25.722 14.084 25.802 14.292 25.962 14.46C26.122 14.62 26.326 14.7 26.574 14.7C26.83 14.7 27.03 14.668 27.174 14.604C27.326 14.54 27.438 14.468 27.51 14.388C27.582 14.308 27.638 14.2 27.678 14.064C27.726 13.912 27.75 13.716 27.75 13.476V12.612C27.75 12.54 27.722 12.504 27.666 12.504ZM33.1973 15L32.3213 14.952C32.1133 14.952 31.8373 14.96 31.4933 14.976L30.9773 15C30.8573 15 30.7973 14.964 30.7973 14.892C30.7973 14.82 30.8173 14.776 30.8573 14.76C30.8973 14.744 30.9453 14.732 31.0013 14.724C31.0653 14.716 31.1253 14.692 31.1813 14.652C31.3333 14.556 31.4173 14.268 31.4333 13.788C31.4493 13.3 31.4573 12.98 31.4573 12.828V11.1C31.4573 10.844 31.4093 10.672 31.3133 10.584C31.2253 10.496 31.1013 10.452 30.9413 10.452H30.8213C30.6693 10.452 30.5933 10.408 30.5933 10.32C30.5933 10.24 30.6773 10.188 30.8453 10.164C31.0213 10.14 31.1573 10.116 31.2533 10.092C31.3573 10.06 31.4893 10.012 31.6493 9.948C31.8173 9.876 31.9493 9.816 32.0453 9.768C32.1493 9.72 32.2173 9.696 32.2493 9.696H32.2733C32.3453 9.696 32.3813 9.744 32.3813 9.84L32.3573 10.356C32.3573 10.564 32.3733 10.668 32.4053 10.668C32.4373 10.668 32.4693 10.648 32.5013 10.608C32.6213 10.44 32.7813 10.296 32.9813 10.176C33.3413 9.952 33.6853 9.84 34.0133 9.84C34.3413 9.84 34.6333 9.892 34.8893 9.996C35.1453 10.092 35.3453 10.216 35.4893 10.368C35.6333 10.512 35.7533 10.68 35.8493 10.872C36.0093 11.192 36.0893 11.52 36.0893 11.856V11.976L36.1013 12.612V13.836C36.1013 14.14 36.1413 14.352 36.2213 14.472C36.3093 14.584 36.5133 14.664 36.8333 14.712C36.9933 14.736 37.0733 14.796 37.0733 14.892C37.0733 14.972 36.9933 15.012 36.8333 15.012L35.8493 14.952L34.9253 15C34.7653 15 34.6853 14.948 34.6853 14.844C34.6853 14.772 34.7333 14.724 34.8293 14.7L34.9853 14.664C35.1613 14.608 35.2493 14.34 35.2493 13.86V12.24C35.2493 11.624 35.0973 11.16 34.7933 10.848C34.4893 10.528 34.1453 10.368 33.7613 10.368C33.3773 10.368 33.0573 10.46 32.8013 10.644C32.5453 10.828 32.3893 11 32.3333 11.16C32.2773 11.32 32.2493 11.932 32.2493 12.996V13.452C32.2493 13.852 32.2893 14.148 32.3693 14.34C32.4573 14.532 32.6453 14.64 32.9333 14.664C33.0133 14.664 33.1133 14.68 33.2333 14.712C33.3613 14.736 33.4253 14.78 33.4253 14.844C33.4253 14.948 33.3493 15 33.1973 15ZM39.6991 15.048L38.8471 15.072C38.5271 15.072 38.3671 15.02 38.3671 14.916C38.3671 14.804 38.4271 14.728 38.5471 14.688C38.5551 14.688 38.5711 14.684 38.5951 14.676C38.7791 14.612 38.8991 14.516 38.9551 14.388C39.0111 14.26 39.0391 13.64 39.0391 12.528V11.472C39.0391 11.24 39.0111 11.056 38.9551 10.92C38.8991 10.784 38.8471 10.7 38.7991 10.668C38.7511 10.636 38.6671 10.612 38.5471 10.596C38.4351 10.572 38.3511 10.552 38.2951 10.536C38.2471 10.512 38.2231 10.48 38.2231 10.44C38.2231 10.392 38.2311 10.356 38.2471 10.332C38.2711 10.308 38.3111 10.284 38.3671 10.26C38.4311 10.228 38.4951 10.2 38.5591 10.176C38.7831 10.112 38.9671 10.048 39.1111 9.984C39.2551 9.92 39.3631 9.872 39.4351 9.84C39.5151 9.808 39.5671 9.784 39.5911 9.768C39.6471 9.744 39.7151 9.732 39.7951 9.732C39.9151 9.732 39.9751 9.808 39.9751 9.96L39.9031 10.536V13.824C39.9031 14.064 39.9391 14.252 40.0111 14.388C40.0911 14.524 40.1711 14.608 40.2511 14.64C40.3391 14.672 40.4391 14.692 40.5511 14.7C40.6631 14.708 40.7351 14.712 40.7671 14.712C40.8791 14.728 40.9351 14.784 40.9351 14.88C40.9351 15.016 40.8671 15.084 40.7311 15.084L40.5511 15.072L39.6991 15.048ZM39.4951 8.604C39.3351 8.604 39.1951 8.52 39.0751 8.352C38.9631 8.184 38.9071 8.048 38.9071 7.944C38.9071 7.832 38.9751 7.692 39.1111 7.524C39.2551 7.348 39.3871 7.26 39.5071 7.26C39.6351 7.26 39.7591 7.344 39.8791 7.512C39.9991 7.672 40.0591 7.816 40.0591 7.944C40.0591 8.072 39.9831 8.216 39.8311 8.376C39.6791 8.528 39.5671 8.604 39.4951 8.604ZM44.5747 15.252C43.8227 15.252 43.2187 15.024 42.7627 14.568C42.3147 14.112 42.0907 13.496 42.0907 12.72C42.0907 11.936 42.3467 11.264 42.8587 10.704C43.3787 10.136 44.0507 9.852 44.8747 9.852C45.1547 9.852 45.4547 9.892 45.7747 9.972C46.1027 10.052 46.2707 10.144 46.2787 10.248C46.2947 10.44 46.3027 10.672 46.3027 10.944C46.3027 11.208 46.2587 11.34 46.1707 11.34C46.0907 11.34 46.0187 11.288 45.9547 11.184C45.8187 10.952 45.5587 10.752 45.1747 10.584C44.7987 10.408 44.4667 10.32 44.1787 10.32C44.0187 10.32 43.8627 10.38 43.7107 10.5C43.5587 10.62 43.4347 10.752 43.3387 10.896C43.1067 11.232 42.9907 11.708 42.9907 12.324C42.9907 12.94 43.1867 13.48 43.5787 13.944C43.9787 14.4 44.4667 14.628 45.0427 14.628C45.3227 14.628 45.5827 14.576 45.8227 14.472C46.0627 14.368 46.2467 14.264 46.3747 14.16C46.5107 14.056 46.5947 14.004 46.6267 14.004C46.7147 14.004 46.7587 14.044 46.7587 14.124C46.7587 14.204 46.6747 14.328 46.5067 14.496C46.3387 14.656 46.1747 14.784 46.0147 14.88C45.6227 15.128 45.1427 15.252 44.5747 15.252ZM49.5204 15.18C48.5764 15.18 48.1044 14.78 48.1044 13.98C48.1044 13.404 48.3444 13.008 48.8244 12.792C49.2244 12.624 49.8364 12.472 50.6604 12.336C50.6844 12.328 50.7164 12.324 50.7564 12.324C50.7964 12.316 50.8364 12.308 50.8764 12.3C50.9244 12.292 50.9604 12.284 50.9844 12.276C51.0404 12.252 51.0684 12.196 51.0684 12.108L51.0924 11.484C51.0924 11.028 50.9604 10.7 50.6964 10.5C50.4324 10.292 50.1764 10.188 49.9284 10.188C49.3524 10.188 49.0644 10.428 49.0644 10.908L49.1124 11.34C49.1124 11.5 49.0404 11.58 48.8964 11.58C48.7844 11.58 48.6604 11.56 48.5244 11.52C48.2764 11.44 48.1524 11.304 48.1524 11.112C48.1524 10.8 48.3604 10.504 48.7764 10.224C49.2004 9.936 49.6244 9.792 50.0484 9.792C50.4724 9.792 50.8044 9.832 51.0444 9.912C51.2844 9.992 51.4604 10.084 51.5724 10.188C51.6924 10.284 51.7844 10.416 51.8484 10.584C51.9284 10.784 51.9684 11.1 51.9684 11.532C51.9684 11.956 51.9564 12.336 51.9324 12.672C51.9164 13 51.9084 13.3 51.9084 13.572C51.9084 13.844 51.9404 14.068 52.0044 14.244C52.0684 14.412 52.1444 14.52 52.2324 14.568C52.3204 14.616 52.4084 14.644 52.4964 14.652C52.7124 14.668 52.8204 14.732 52.8204 14.844C52.8204 15.012 52.5684 15.096 52.0644 15.096C51.8564 15.096 51.6764 15.04 51.5244 14.928C51.3804 14.816 51.2764 14.708 51.2124 14.604C51.1484 14.492 51.1124 14.436 51.1044 14.436C51.0964 14.436 51.0644 14.464 51.0084 14.52C50.9524 14.568 50.8724 14.628 50.7684 14.7C50.6724 14.772 50.5604 14.844 50.4324 14.916C50.1364 15.092 49.8324 15.18 49.5204 15.18ZM50.9844 12.504L50.8644 12.528C50.6804 12.56 50.5644 12.58 50.5164 12.588C50.4684 12.596 50.3564 12.62 50.1804 12.66C50.0044 12.7 49.8804 12.736 49.8084 12.768C49.7444 12.8 49.6484 12.852 49.5204 12.924C49.4004 12.988 49.3124 13.056 49.2564 13.128C49.1124 13.352 49.0404 13.588 49.0404 13.836C49.0404 14.084 49.1204 14.292 49.2804 14.46C49.4404 14.62 49.6444 14.7 49.8924 14.7C50.1484 14.7 50.3484 14.668 50.4924 14.604C50.6444 14.54 50.7564 14.468 50.8284 14.388C50.9004 14.308 50.9564 14.2 50.9964 14.064C51.0444 13.912 51.0684 13.716 51.0684 13.476V12.612C51.0684 12.54 51.0404 12.504 50.9844 12.504Z" fill="#928474"/>
</g>
<g filter="url(#filter1_d_31_42)">
<path d="M29.368 19.828L29.356 17.788C29.356 17.572 29.288 17.36 29.152 17.152C29.016 16.936 28.792 16.828 28.48 16.828C28.32 16.828 28.24 16.776 28.24 16.672C28.24 16.544 28.332 16.48 28.516 16.48L28.96 16.468L29.68 16.504L31.66 16.468C32.412 16.468 33.06 16.66 33.604 17.044C34.148 17.42 34.42 17.964 34.42 18.676C34.42 19.068 34.348 19.42 34.204 19.732C34.06 20.036 33.884 20.276 33.676 20.452C33.476 20.628 33.248 20.776 32.992 20.896C32.584 21.08 32.22 21.172 31.9 21.172C31.58 21.172 31.288 21.144 31.024 21.088C30.76 21.024 30.628 20.96 30.628 20.896C30.628 20.776 30.68 20.716 30.784 20.716C30.824 20.716 30.904 20.732 31.024 20.764C31.152 20.796 31.292 20.812 31.444 20.812C31.596 20.812 31.776 20.788 31.984 20.74C32.192 20.684 32.408 20.6 32.632 20.488C32.856 20.368 33.04 20.192 33.184 19.96C33.328 19.72 33.4 19.444 33.4 19.132C33.4 18.596 33.184 18.1 32.752 17.644C32.32 17.18 31.724 16.948 30.964 16.948C30.716 16.948 30.548 17.024 30.46 17.176C30.372 17.32 30.328 17.652 30.328 18.172L30.304 23.128C30.304 24.056 30.576 24.552 31.12 24.616C31.256 24.632 31.368 24.64 31.456 24.64C31.68 24.624 31.792 24.704 31.792 24.88C31.792 25.016 31.7 25.084 31.516 25.084L29.8 25.024L28.684 25.072C28.436 25.072 28.312 25.028 28.312 24.94C28.312 24.804 28.356 24.72 28.444 24.688C28.484 24.672 28.512 24.66 28.528 24.652C28.544 24.644 28.58 24.636 28.636 24.628C28.7 24.612 28.74 24.6 28.756 24.592C28.78 24.584 28.808 24.58 28.84 24.58C28.872 24.572 28.892 24.568 28.9 24.568C28.916 24.56 28.936 24.548 28.96 24.532C28.992 24.508 29.016 24.48 29.032 24.448C29.048 24.408 29.068 24.36 29.092 24.304C29.124 24.24 29.16 24.148 29.2 24.028C29.248 23.9 29.288 23.312 29.32 22.264C29.352 21.216 29.368 20.404 29.368 19.828ZM37.7618 25.216C36.9458 25.216 36.2938 24.956 35.8058 24.436C35.3258 23.908 35.0858 23.28 35.0858 22.552C35.0858 21.824 35.3338 21.188 35.8298 20.644C36.3338 20.1 36.9938 19.828 37.8098 19.828C38.6338 19.828 39.3218 20.064 39.8738 20.536C40.4338 21.008 40.7138 21.664 40.7138 22.504C40.7138 23.344 40.4258 24.008 39.8498 24.496C39.2818 24.976 38.5858 25.216 37.7618 25.216ZM37.6298 20.152C37.2138 20.152 36.8418 20.316 36.5138 20.644C36.1938 20.972 36.0338 21.512 36.0338 22.264C36.0338 23.016 36.2538 23.636 36.6938 24.124C37.1338 24.612 37.6058 24.856 38.1098 24.856C38.6218 24.856 39.0338 24.684 39.3458 24.34C39.6578 23.988 39.8138 23.476 39.8138 22.804C39.8138 22.132 39.6218 21.524 39.2378 20.98C38.8538 20.428 38.3178 20.152 37.6298 20.152ZM46.2683 25.036L46.2323 24.592C46.2323 24.456 46.1963 24.388 46.1243 24.388C46.1003 24.388 46.0403 24.428 45.9443 24.508C45.8563 24.588 45.7523 24.68 45.6323 24.784C45.5123 24.88 45.3363 24.968 45.1043 25.048C44.8803 25.128 44.6363 25.168 44.3723 25.168C43.6283 25.168 43.0483 24.924 42.6323 24.436C42.2163 23.94 42.0083 23.328 42.0083 22.6C42.0083 21.864 42.2643 21.204 42.7763 20.62C43.2963 20.036 44.0123 19.744 44.9243 19.744C45.1323 19.744 45.4043 19.804 45.7403 19.924C46.0843 20.036 46.2723 20.092 46.3043 20.092C46.3363 20.092 46.3523 19.948 46.3523 19.66L46.3763 18.112C46.3763 17.68 46.3523 17.376 46.3043 17.2C46.2643 17.024 46.1963 16.908 46.1003 16.852C46.0123 16.796 45.8923 16.768 45.7403 16.768H45.6083C45.4883 16.768 45.4163 16.764 45.3923 16.756C45.3683 16.748 45.3563 16.72 45.3563 16.672V16.66C45.3563 16.604 45.3963 16.564 45.4763 16.54C45.5563 16.508 45.7163 16.456 45.9563 16.384C46.2043 16.304 46.3963 16.232 46.5323 16.168C46.6763 16.104 46.7843 16.056 46.8563 16.024C47.0083 15.944 47.1163 15.904 47.1803 15.904C47.2763 15.904 47.3243 15.984 47.3243 16.144C47.3243 16.168 47.2963 16.508 47.2403 17.164C47.1923 17.82 47.1683 18.348 47.1683 18.748L47.1443 23.128C47.1443 23.672 47.1683 24.036 47.2163 24.22C47.2723 24.404 47.3883 24.524 47.5643 24.58C47.5883 24.588 47.6563 24.604 47.7683 24.628C47.8803 24.644 47.9603 24.668 48.0083 24.7C48.0563 24.724 48.0803 24.768 48.0803 24.832C48.0803 24.928 47.7723 25 47.1563 25.048C47.0283 25.056 46.8803 25.076 46.7123 25.108C46.5443 25.148 46.4403 25.168 46.4003 25.168C46.3123 25.168 46.2683 25.124 46.2683 25.036ZM44.5403 20.092C44.0203 20.092 43.6123 20.284 43.3163 20.668C43.0203 21.044 42.8723 21.528 42.8723 22.12C42.8723 22.712 43.0563 23.264 43.4243 23.776C43.8003 24.288 44.2803 24.544 44.8643 24.544C45.2243 24.544 45.5523 24.452 45.8483 24.268C46.1443 24.084 46.2923 23.86 46.2923 23.596L46.3043 21.544C46.3043 21.056 46.1923 20.748 45.9683 20.62C45.3763 20.268 44.9003 20.092 44.5403 20.092ZM49.2827 16.852L49.0427 16.864C48.8827 16.864 48.8027 16.82 48.8027 16.732C48.8027 16.644 48.9987 16.54 49.3907 16.42C49.4467 16.404 49.5107 16.384 49.5827 16.36C49.6627 16.336 49.7107 16.324 49.7267 16.324C49.7427 16.316 49.7707 16.304 49.8107 16.288C49.8587 16.272 49.8827 16.264 49.8827 16.264C49.8907 16.256 49.9107 16.244 49.9427 16.228C49.9827 16.212 50.0107 16.2 50.0267 16.192C50.0427 16.176 50.0747 16.156 50.1227 16.132C50.1707 16.1 50.2467 16.052 50.3507 15.988C50.4627 15.916 50.5707 15.88 50.6747 15.88C50.7787 15.88 50.8307 15.956 50.8307 16.108C50.8307 16.124 50.8267 16.172 50.8187 16.252C50.8107 16.324 50.7987 16.436 50.7827 16.588C50.7747 16.732 50.7667 16.912 50.7587 17.128C50.7347 17.76 50.7227 18.432 50.7227 19.144C50.7227 19.144 50.7107 19.964 50.6867 21.604V21.856C50.6867 22.192 50.7027 22.36 50.7347 22.36C50.8067 22.36 50.8787 22.32 50.9507 22.24C51.0307 22.16 51.0867 22.108 51.1187 22.084C52.2387 21.188 52.7987 20.684 52.7987 20.572C52.7987 20.46 52.7067 20.368 52.5227 20.296C52.3467 20.224 52.2587 20.156 52.2587 20.092C52.2587 20.012 52.3067 19.972 52.4027 19.972L52.6187 19.984L54.3827 19.924C54.5907 19.924 54.6947 19.956 54.6947 20.02C54.6947 20.084 54.6707 20.128 54.6227 20.152C54.5747 20.176 54.5107 20.192 54.4307 20.2C54.1667 20.24 53.8707 20.372 53.5427 20.596C53.5187 20.612 53.4907 20.632 53.4587 20.656C53.4347 20.68 53.3827 20.72 53.3027 20.776C53.2307 20.832 53.1427 20.9 53.0387 20.98C52.9347 21.06 52.7427 21.208 52.4627 21.424C52.1827 21.632 52.0107 21.764 51.9467 21.82C51.8827 21.876 51.8507 21.936 51.8507 22C51.8507 22.064 51.8947 22.156 51.9827 22.276C52.7107 23.164 53.3347 23.836 53.8547 24.292C54.0707 24.484 54.2867 24.608 54.5027 24.664C54.7267 24.72 54.8867 24.748 54.9827 24.748C55.0787 24.748 55.1267 24.784 55.1267 24.856C55.1267 24.952 55.0907 25.008 55.0187 25.024C54.9547 25.048 54.8267 25.06 54.6347 25.06L53.3867 25.048C53.1867 25.048 52.5587 24.396 51.5027 23.092C51.2947 22.836 51.1787 22.692 51.1547 22.66C51.1387 22.628 51.0947 22.612 51.0227 22.612C50.9587 22.612 50.8827 22.668 50.7947 22.78C50.7147 22.892 50.6747 23.02 50.6747 23.164L50.6867 23.368C50.6867 23.944 50.7187 24.272 50.7827 24.352C50.7907 24.36 50.8267 24.412 50.8907 24.508C50.9627 24.596 51.1307 24.664 51.3947 24.712C51.6667 24.76 51.8027 24.82 51.8027 24.892C51.8027 25.02 51.6787 25.084 51.4307 25.084L50.2667 25.012L49.3907 25.06C49.1987 25.06 49.1027 25.012 49.1027 24.916C49.1027 24.836 49.2027 24.768 49.4027 24.712C49.5867 24.64 49.7027 24.536 49.7507 24.4C49.7987 24.264 49.8227 24 49.8227 23.608L49.8347 23.08L49.8467 17.752C49.8467 17.152 49.6587 16.852 49.2827 16.852ZM58.6231 25.216C57.8071 25.216 57.1551 24.956 56.6671 24.436C56.1871 23.908 55.9471 23.28 55.9471 22.552C55.9471 21.824 56.1951 21.188 56.6911 20.644C57.1951 20.1 57.8551 19.828 58.6711 19.828C59.4951 19.828 60.1831 20.064 60.7351 20.536C61.2951 21.008 61.5751 21.664 61.5751 22.504C61.5751 23.344 61.2871 24.008 60.7111 24.496C60.1431 24.976 59.4471 25.216 58.6231 25.216ZM58.4911 20.152C58.0751 20.152 57.7031 20.316 57.3751 20.644C57.0551 20.972 56.8951 21.512 56.8951 22.264C56.8951 23.016 57.1151 23.636 57.5551 24.124C57.9951 24.612 58.4671 24.856 58.9711 24.856C59.4831 24.856 59.8951 24.684 60.2071 24.34C60.5191 23.988 60.6751 23.476 60.6751 22.804C60.6751 22.132 60.4831 21.524 60.0991 20.98C59.7151 20.428 59.1791 20.152 58.4911 20.152ZM66.97 19.936L67.342 19.924C67.518 19.924 67.606 19.98 67.606 20.092C67.606 20.148 67.594 20.18 67.57 20.188C67.522 20.204 67.474 20.212 67.426 20.212C67.186 20.228 67.066 20.34 67.066 20.548C67.066 20.844 67.302 21.512 67.774 22.552C67.838 22.68 67.914 22.856 68.002 23.08C68.178 23.536 68.29 23.764 68.338 23.764C68.418 23.764 68.626 23.328 68.962 22.456C69.306 21.576 69.478 21.032 69.478 20.824C69.478 20.616 69.442 20.476 69.37 20.404C69.306 20.324 69.234 20.28 69.154 20.272C68.93 20.24 68.818 20.16 68.818 20.032C68.818 19.968 68.902 19.936 69.07 19.936H70.45C70.602 19.936 70.698 19.944 70.738 19.96C70.778 19.976 70.798 20.02 70.798 20.092C70.798 20.164 70.73 20.228 70.594 20.284C70.466 20.332 70.362 20.412 70.282 20.524C70.202 20.636 70.13 20.76 70.066 20.896C70.002 21.024 69.93 21.184 69.85 21.376C69.61 21.976 69.31 22.656 68.95 23.416C68.59 24.176 68.39 24.592 68.35 24.664C68.318 24.736 68.274 24.82 68.218 24.916C68.138 25.076 68.062 25.156 67.99 25.156C67.854 25.156 67.598 24.64 67.222 23.608C66.846 22.568 66.626 22.048 66.562 22.048C66.538 22.048 66.282 22.56 65.794 23.584C65.306 24.608 64.986 25.12 64.834 25.12C64.77 25.12 64.71 25.064 64.654 24.952C64.598 24.84 64.442 24.456 64.186 23.8C63.938 23.144 63.734 22.62 63.574 22.228C63.414 21.828 63.298 21.532 63.226 21.34C63.162 21.14 63.114 21 63.082 20.92C62.97 20.696 62.782 20.472 62.518 20.248C62.486 20.216 62.45 20.192 62.41 20.176C62.37 20.152 62.342 20.136 62.326 20.128C62.302 20.104 62.29 20.064 62.29 20.008C62.29 19.92 62.366 19.876 62.518 19.876L63.37 19.924L63.958 19.912C64.198 19.912 64.35 19.92 64.414 19.936C64.486 19.944 64.522 19.98 64.522 20.044C64.522 20.108 64.478 20.152 64.39 20.176C64.126 20.232 63.994 20.392 63.994 20.656C63.994 20.912 64.218 21.544 64.666 22.552C64.722 22.664 64.798 22.84 64.894 23.08C64.99 23.312 65.066 23.484 65.122 23.596C65.178 23.7 65.222 23.752 65.254 23.752C65.286 23.752 65.386 23.592 65.554 23.272C65.73 22.944 65.846 22.72 65.902 22.6C65.966 22.48 66.014 22.392 66.046 22.336C66.078 22.272 66.114 22.204 66.154 22.132C66.194 22.052 66.222 21.996 66.238 21.964C66.254 21.924 66.27 21.88 66.286 21.832C66.31 21.784 66.326 21.752 66.334 21.736C66.342 21.712 66.35 21.684 66.358 21.652C66.366 21.612 66.37 21.58 66.37 21.556V21.472C66.37 21.416 66.33 21.296 66.25 21.112C66.178 20.928 66.098 20.776 66.01 20.656C65.93 20.528 65.842 20.424 65.746 20.344C65.65 20.264 65.578 20.216 65.53 20.2C65.402 20.152 65.338 20.092 65.338 20.02C65.338 19.948 65.398 19.912 65.518 19.912L66.97 19.936ZM73.3786 25.18C72.4346 25.18 71.9626 24.78 71.9626 23.98C71.9626 23.404 72.2026 23.008 72.6826 22.792C73.0826 22.624 73.6946 22.472 74.5186 22.336C74.5426 22.328 74.5746 22.324 74.6146 22.324C74.6546 22.316 74.6946 22.308 74.7346 22.3C74.7826 22.292 74.8186 22.284 74.8426 22.276C74.8986 22.252 74.9266 22.196 74.9266 22.108L74.9506 21.484C74.9506 21.028 74.8186 20.7 74.5546 20.5C74.2906 20.292 74.0346 20.188 73.7866 20.188C73.2106 20.188 72.9226 20.428 72.9226 20.908L72.9706 21.34C72.9706 21.5 72.8986 21.58 72.7546 21.58C72.6426 21.58 72.5186 21.56 72.3826 21.52C72.1346 21.44 72.0106 21.304 72.0106 21.112C72.0106 20.8 72.2186 20.504 72.6346 20.224C73.0586 19.936 73.4826 19.792 73.9066 19.792C74.3306 19.792 74.6626 19.832 74.9026 19.912C75.1426 19.992 75.3186 20.084 75.4306 20.188C75.5506 20.284 75.6426 20.416 75.7066 20.584C75.7866 20.784 75.8266 21.1 75.8266 21.532C75.8266 21.956 75.8146 22.336 75.7906 22.672C75.7746 23 75.7666 23.3 75.7666 23.572C75.7666 23.844 75.7986 24.068 75.8626 24.244C75.9266 24.412 76.0026 24.52 76.0906 24.568C76.1786 24.616 76.2666 24.644 76.3546 24.652C76.5706 24.668 76.6786 24.732 76.6786 24.844C76.6786 25.012 76.4266 25.096 75.9226 25.096C75.7146 25.096 75.5346 25.04 75.3826 24.928C75.2386 24.816 75.1346 24.708 75.0706 24.604C75.0066 24.492 74.9706 24.436 74.9626 24.436C74.9546 24.436 74.9226 24.464 74.8666 24.52C74.8106 24.568 74.7306 24.628 74.6266 24.7C74.5306 24.772 74.4186 24.844 74.2906 24.916C73.9946 25.092 73.6906 25.18 73.3786 25.18ZM74.8426 22.504L74.7226 22.528C74.5386 22.56 74.4226 22.58 74.3746 22.588C74.3266 22.596 74.2146 22.62 74.0386 22.66C73.8626 22.7 73.7386 22.736 73.6666 22.768C73.6026 22.8 73.5066 22.852 73.3786 22.924C73.2586 22.988 73.1706 23.056 73.1146 23.128C72.9706 23.352 72.8986 23.588 72.8986 23.836C72.8986 24.084 72.9786 24.292 73.1386 24.46C73.2986 24.62 73.5026 24.7 73.7506 24.7C74.0066 24.7 74.2066 24.668 74.3506 24.604C74.5026 24.54 74.6146 24.468 74.6866 24.388C74.7586 24.308 74.8146 24.2 74.8546 24.064C74.9026 23.912 74.9266 23.716 74.9266 23.476V22.612C74.9266 22.54 74.8986 22.504 74.8426 22.504Z" fill="#928474"/>
</g>
<mask id="mask0_31_42" style="mask-type:luminance" maskUnits="userSpaceOnUse" x="0" y="0" width="21" height="21">
<path d="M0 20.8556L0 0.183715H21V20.8556H0Z" fill="white"/>
</mask>
<g mask="url(#mask0_31_42)">
<path d="M10.5012 1.69916C10.2564 1.69916 10.0582 1.50006 10.0582 1.25568C10.0582 1.01086 10.2564 0.812194 10.5012 0.812194C10.746 0.812194 10.9447 1.01086 10.9447 1.25568C10.9447 1.50006 10.746 1.69916 10.5012 1.69916ZM7.33319 2.87793C7.33319 3.24792 7.03369 3.54785 6.6637 3.54785C6.29413 3.54785 5.9942 3.24792 5.9942 2.87793C5.9942 2.50836 6.29413 2.20843 6.6637 2.20843C7.03369 2.20843 7.33319 2.50836 7.33319 2.87793ZM4.10364 5.82336C4.10364 6.19293 3.80414 6.49286 3.43414 6.49286C3.06415 6.49286 2.76422 6.19293 2.76422 5.82336C2.76422 5.45337 3.06415 5.15387 3.43414 5.15387C3.80414 5.15387 4.10364 5.45337 4.10364 5.82336ZM2.50873 10.5004C2.50873 10.8704 2.2088 11.1699 1.83881 11.1699C1.46881 11.1699 1.16888 10.8704 1.16888 10.5004C1.16888 10.1309 1.46881 9.83093 1.83881 9.83093C2.2088 9.83093 2.50873 10.1309 2.50873 10.5004ZM4.10364 15.1775C4.10364 15.5475 3.80414 15.8474 3.43414 15.8474C3.06415 15.8474 2.76422 15.5475 2.76422 15.1775C2.76422 14.8079 3.06415 14.508 3.43414 14.508C3.80414 14.508 4.10364 14.8079 4.10364 15.1775ZM7.33319 18.1229C7.33319 18.4925 7.03369 18.7924 6.6637 18.7924C6.29413 18.7924 5.9942 18.4925 5.9942 18.1229C5.9942 17.7529 6.29413 17.453 6.6637 17.453C7.03369 17.453 7.33319 17.7529 7.33319 18.1229ZM10.9447 19.7452C10.9447 19.99 10.746 20.1887 10.5012 20.1887C10.2564 20.1887 10.0582 19.99 10.0582 19.7452C10.0582 19.5004 10.2564 19.3021 10.5012 19.3021C10.746 19.3021 10.9447 19.5004 10.9447 19.7452ZM12.4725 0.15808C5.58447 0.15808 0.0012207 4.78857 0.0012207 10.5004C0.0012207 16.2123 5.58447 20.8428 12.4725 20.8428C15.7717 20.8428 18.771 19.7802 21.0016 18.046C19.2769 18.8544 17.253 19.3201 15.0881 19.3201C8.78369 19.3201 3.67297 15.3715 3.67297 10.5004C3.67297 5.62939 8.78369 1.68079 15.0881 1.68079C17.253 1.68079 19.2769 2.14648 21.0016 2.95483C18.771 1.22021 15.7717 0.15808 12.4725 0.15808Z" fill="#928474"/>
</g>
<defs>
<filter id="filter0_d_31_42" x="12.588" y="6.336" width="40.5925" height="9.396" filterUnits="userSpaceOnUse" color-interpolation-filters="sRGB">
<feFlood flood-opacity="0" result="BackgroundImageFix"/>
<feColorMatrix in="SourceAlpha" type="matrix" values="0 0 0 0 0 0 0 0 0 0 0 0 0 0 0 0 0 0 127 0" result="hardAlpha"/>
<feOffset dx="0.12" dy="0.24"/>
<feGaussianBlur stdDeviation="0.12"/>
<feComposite in2="hardAlpha" operator="out"/>
<feColorMatrix type="matrix" values="0 0 0 0 0.572549 0 0 0 0 0.517647 0 0 0 0 0.454902 0 0 0 1 0"/>
<feBlend mode="normal" in2="BackgroundImageFix" result="effect1_dropShadow_31_42"/>
<feBlend mode="normal" in="SourceGraphic" in2="effect1_dropShadow_31_42" result="shape"/>
</filter>
<filter id="filter1_d_31_42" x="28.12" y="15.88" width="48.9185" height="9.816" filterUnits="userSpaceOnUse" color-interpolation-filters="sRGB">
<feFlood flood-opacity="0" result="BackgroundImageFix"/>
<feColorMatrix in="SourceAlpha" type="matrix" values="0 0 0 0 0 0 0 0 0 0 0 0 0 0 0 0 0 0 127 0" result="hardAlpha"/>
<feOffset dx="0.12" dy="0.24"/>
<feGaussianBlur stdDeviation="0.12"/>
<feComposite in2="hardAlpha" operator="out"/>
<feColorMatrix type="matrix" values="0 0 0 0 0.572549 0 0 0 0 0.517647 0 0 0 0 0.454902 0 0 0 1 0"/>
<feBlend mode="normal" in2="BackgroundImageFix" result="effect1_dropShadow_31_42"/>
<feBlend mode="normal" in="SourceGraphic" in2="effect1_dropShadow_31_42" result="shape"/>
</filter>
</defs>
</svg>
